<svg id="Layer_2" data-name="Layer 2" xmlns="http://www.w3.org/2000/svg" viewBox="0 0 397.15 629.46"><defs><style>.cls-1{fill:#f25a29;}.cls-2{fill:#fac042;}.cls-3{fill:#e9b13f;}.cls-4{fill:#f7cd48;}.cls-5{fill:#231f20;}.cls-6{fill:#fff;}.cls-7{fill:#d52f28;}.cls-8{fill:#f77e41;}.cls-9{fill:#443d3f;}</style></defs><path class="cls-1" d="M109.61,544.21c-.47,3-10.41,50.26-11.73,50.07l-10.5-1.52,3.79-53.9Z"/><path class="cls-2" d="M85.78,499.51,138,496.1a181.21,181.21,0,0,1-13.58,39.28c-2.13,4.43-4.48,8.83-7.83,12.41s-7.86,6.57-12.77,6.62c-20.9.24-21.83-17.4-21.72-20.18A266.3,266.3,0,0,1,85.78,499.51Z"/><path class="cls-3" d="M86.24,490.5l6.21,5.6c-1.34,9.24-2.67,21.56-3,30.89-.11,2.78.83,20.42,21.73,20.18a15.33,15.33,0,0,0,8.18-2.73,33.34,33.34,0,0,1-2.71,3.35c-3.36,3.58-7.86,6.57-12.77,6.62-20.9.24-21.83-17.4-21.72-20.18C82.58,522.6,84.25,502,86.24,490.5Z"/><path class="cls-1" d="M95.6,579.62s65.82-15.7,68.93-10.13c2.5,4.5-14.24,8.11-12.31,13.72s14.05,8.07,11.21,11.9-21.19,2.34-24.37,6.85,8.31,15.51,2.44,19.19c-10.9,6.86-54.12-28.08-54.12-28.08Z"/><path class="cls-1" d="M284.26,498.64c2.39,2,37.93,34.6,37.09,35.64s-6.66,8.25-6.66,8.25l-44.44-30.75Z"/><path class="cls-2" d="M233.67,496.34l23.7-46.67a181.42,181.42,0,0,1,26.87,31.72c2.72,4.08,5.3,8.34,6.67,13.06s1.64,10.11-.81,14.36c-10.46,18.1-26.11,9.9-28.44,8.39A265.77,265.77,0,0,1,233.67,496.34Z"/><path class="cls-3" d="M229.74,494.13l6.75-3.35a264.84,264.84,0,0,0,22.67,16.45c2.33,1.51,18,9.71,28.43-8.39a15.35,15.35,0,0,0,1.82-8.44,30.74,30.74,0,0,1,1.5,4.05c1.37,4.71,1.64,10.11-.81,14.36-10.46,18.1-26.11,9.9-28.44,8.39C251.89,510.87,238.61,501.69,229.74,494.13Z"/><path class="cls-1" d="M308.74,527.45s29.15-61.1,35.69-59.94c5.28.93-2.43,16.22,3.38,18.3s15.58-5.74,16.89-1.09-11.6,17.93-9.94,23.28,18,3.46,17.28,10.36c-1.34,12.84-57.53,24.07-57.53,24.07Z"/><path class="cls-2" d="M271,275.62l-80,1.9c4.58,28.6-7,71.18-43,78.73C127,360.63,96.45,375.77,46.75,325.87a51.6,51.6,0,0,0-4.27,29.24A62.45,62.45,0,0,1,27.74,337a55.35,55.35,0,0,0-1.83,19.55A43.18,43.18,0,0,1,8,336.11,213.43,213.43,0,0,0,47.7,465.58l.45-.22c10.34,17.49,28.13,33.2,56.67,43.14C193.6,539.4,275.62,483.82,293,425,319.42,335.94,271,275.62,271,275.62Z"/><path class="cls-4" d="M257.22,300.52c-3.37,8.84.7,18.67,2.44,27.34a104.87,104.87,0,0,1,.11,41.43c-3.65,18-12.06,35-14.36,53.21s3.82,39.65,20.63,47c13.51-14,23.29-30.06,28.11-46.35,19.12-64.54-1-114-13.61-136.31C270.36,287,260.93,290.8,257.22,300.52Z"/><path class="cls-2" d="M186.43,153c-44.55,19.55-72.12,56.72-55,113.34,11.48,38,64.18,72.89,114.82,59C320.92,304.74,349.6,254.5,336,210.65S273.16,114.92,186.43,153Z"/><path class="cls-2" d="M185.85,167c9.25-10.25,10.79-26.7,3.59-38.48a43.86,43.86,0,0,1,13.83,9.26,75.32,75.32,0,0,0-1.92-28.67q8.33,11.24,15.76,23.08a33.63,33.63,0,0,1,17.5-17.35c-9.31,16-5,38.54,9.62,49.91Z"/><path class="cls-1" d="M316.62,174.18c-5,12.35-1.1,18.62-2.47,25.58s-13.64,15.78-8.91,25.31c13,26.25,43.61,11.59,43.61,11.59s51-34.88,38.43-61.06c-7-14.58-47.77,2.16-47.77,2.16C327.21,179.86,316.62,174.18,316.62,174.18Z"/><path class="cls-3" d="M112.63,401.36c-4.54.38-9.28.27-13.4,2.2s-7.37,6.82-5.61,11,7.17,5.32,11.75,5.82a12.73,12.73,0,0,0,17.69,15.68c-2.37,6.05,2.18,13.06,8.16,15.62s12.8,1.82,19.21.76c14-2.29,27.93-5.9,40.32-12.78s23.18-17.3,28.53-30.42c7.75-19-3.44-51.15-28.22-46.18-13,2.6-24.4,13.82-35.19,20.78C142.72,392.33,128.5,400,112.63,401.36Z"/><path class="cls-4" d="M170.32,381.29c-3.61,2.92-6.94,6.27-11.06,8.41-6.58,3.42-14.94,3.63-20.24,8.83a4.71,4.71,0,0,0-1.39,2.11c-.42,1.67.84,3.41,2.42,4.1a9.82,9.82,0,0,0,5.11.33c12.59-1.65,24.1-7.77,35-14.22,4.38-2.59,10.63-8.5,5.17-13.54C181,373.24,173.82,378.46,170.32,381.29Z"/><path class="cls-5" d="M273,192.26a8.55,8.55,0,1,1-10.16-6.57A8.56,8.56,0,0,1,273,192.26Z"/><path class="cls-6" d="M265.08,191.22a3.77,3.77,0,1,1-4.48-2.9A3.77,3.77,0,0,1,265.08,191.22Z"/><path class="cls-5" d="M243.41,179.13c1.87-2,4.77-2.94,6.24-5.24a2.51,2.51,0,0,0,.45-1.21,2.17,2.17,0,0,0-2.28-2c-4.26,0-11,7.47-12.5,11.29-.68,1.69-.76,2.87,1.26,3.22C240,185.83,241.6,181.07,243.41,179.13Z"/><path class="cls-7" d="M387.27,175.61a8.79,8.79,0,0,0-2.89-3.38c-.81,8.76-6.34,16.49-12.41,23a114.57,114.57,0,0,1-18.05,15.59,116.52,116.52,0,0,1-39.45,17.77,29.49,29.49,0,0,1-6.5,1.13c14.12,19.8,40.87,7,40.87,7S399.83,201.78,387.27,175.61Z"/><path class="cls-8" d="M320.27,207.64a5.48,5.48,0,0,0,1.1,2.35c1.3,1.47,3.51,1.66,5.47,1.54a36.39,36.39,0,0,0,14.31-4.26,30.15,30.15,0,0,0,8.12-5.84,12.58,12.58,0,0,0,2.5-3.57,3.82,3.82,0,0,0,.34-2.6,3.3,3.3,0,0,0-2.74-2.06,10.63,10.63,0,0,0-3.59.31,64.59,64.59,0,0,1-8.88,1,40.51,40.51,0,0,0-7.3.63c-2.28.53-5.06,1.63-6.59,3.51-1.06,1.31-1.42,3.21-2.17,4.7A5.78,5.78,0,0,0,320.27,207.64Z"/><path class="cls-5" d="M287.25,322.93A53,53,0,0,0,273,319.79c-4.37-.34-9.28.08-12.26,3.29s-3.06,8.09-2.47,12.42A58.41,58.41,0,0,0,265,355.8c1.68,3.05,3.93,6.17,7.3,7,3,.78,6.33-.55,8.61-2.7a23.62,23.62,0,0,0,5-7.91,97,97,0,0,0,5.65-16.93l-.33,2.13Z"/><path class="cls-5" d="M297.07,336l-.15-.37c-.47-.38-.93-.75-1.39-1.14Z"/><path class="cls-5" d="M329.07,334.94a58.46,58.46,0,0,0-6.82-20.26c-2.13-3.81-5.14-7.68-9.44-8.45S304.32,308.07,301,311a53.4,53.4,0,0,0-9.53,11.08l5.42,13.57a97.29,97.29,0,0,0,13.29,9A23.79,23.79,0,0,0,319,348c3.12.35,6.54-.56,8.5-3C329.63,342.24,329.56,338.38,329.07,334.94Z"/><path class="cls-5" d="M281.67,327.78a76.69,76.69,0,0,0,4.2,9.88,9.91,9.91,0,0,0,3.61,4.47c2.57,1.44,5.75.53,8.54-.41a6.8,6.8,0,0,0,2.93-1.55,6.61,6.61,0,0,0,1.38-3.75,30.77,30.77,0,0,0-1.47-13.62C296.43,309.2,277.55,315.84,281.67,327.78Z"/><path class="cls-3" d="M131.32,204.94c-3,7.47-5.8,16.43-1.26,23.07,3,4.42,8.61,6.41,13.94,6.83,11.42.92,22.53-4.05,32.13-10.31,17.41-11.34,31.51-27,45.4-42.45l30.74-34.24c1.31-1.46,2.7-3.12,2.7-5.09,0-2.12-1.73-3.95-3.73-4.7a14,14,0,0,0-6.31-.43c-24.78,2.42-46.74,16.15-69.35,26.54-13.39,6.16-27.87,11.66-37.22,23Z"/><path class="cls-5" d="M117.23,190.28l-.1.07c-15.81,13.15-23.36,62.27,99.15-18,84.08-55.06,57.28-75,19.79-53.58C199.11,139.9,119.48,188.89,117.23,190.28Z"/><path class="cls-5" d="M129.75,193.14c-3.41-7.67-1.85-34.55-24.53-69.22C82.4,89.05,64.9,77.17,64.9,77.17L173,12.43S180,43.25,202.77,79c23.36,36.59,42.41,45.15,42.41,45.15Z"/><path class="cls-9" d="M116,31.8C95.88,45.62,57.74,66.58,64.9,77.17s40.75-9.64,63.56-24.71,48.18-27.68,44.54-40C168.65-2.31,134.78,18.87,116,31.8Z"/><path class="cls-9" d="M128.42,188.24S153,189.76,190.11,167s50.44-45.67,50.44-45.67l-13.49-11a153.52,153.52,0,0,1-41.21,38.11c-36.39,22.5-60.33,23.73-60.33,23.73l4.23,20.91Z"/><path class="cls-9" d="M99,96.35c16.7,14.54,26.5,35.4,33.73,56.33.72,2.1,1.51,4.33,3.23,5.74s4.72,1.52,5.89-.38c.76-1.21.54-2.76.27-4.16a127.11,127.11,0,0,0-22.65-51.55c-4.5-6.1-11.51-16.93-19-19.53C88.85,78.81,93.92,91.94,99,96.35Z"/><path class="cls-9" d="M121.06,207.19a65.07,65.07,0,0,0,17.77-1.38c2.92-.64,6.2-1.82,7.23-4.63a2.44,2.44,0,0,0,.06-1.8c-.55-1.28-2.34-1.3-3.73-1.15-5.72.62-12.82-1.2-18.25.28C120.53,199.49,113.9,206.77,121.06,207.19Z"/></svg>