<svg id="Layer_2" data-name="Layer 2" xmlns="http://www.w3.org/2000/svg" viewBox="0 0 600 600"><defs><style>.cls-1{fill:#e5e5d1;}.cls-2{fill:#f25a29;}.cls-3{fill:#fac042;}.cls-4{fill:#e9b13f;}.cls-5{fill:#f7cd48;}.cls-6{fill:#d52f28;}.cls-7{fill:#f77e41;}.cls-8{fill:#231f20;}.cls-9{fill:#fff;}.cls-10{fill:#a5a498;}</style></defs><path class="cls-1" d="M214.63,273.15a61.45,61.45,0,0,0-49.55,6c9.35,1.76,15.95,9.88,23.94,15,6.37,4.12,13.78,6.4,21.26,7.63a85.43,85.43,0,0,0,23.25.61Z"/><path class="cls-1" d="M395.32,258.8l-28.81,31.58c-.36-.47-1.13.33-.83.84s1,.6,1.58.63c12.48.61,25.2,1.19,37.27-2,14.35-3.82,26.74-12.71,38.76-21.43A66.65,66.65,0,0,0,395.32,258.8Z"/><path class="cls-2" d="M148,488.21c-3.15.94-42.47,24.08-42.47,24.08l8.55,6.43,64.11-19.06Z"/><path class="cls-2" d="M51.41,450.61c-1-2.23-1.84-6.28,1.11-7.18,5.87-1.79,12,10.78,17.68,8.51,3.88-1.55,2.67-6.52,2.36-10.71-.36-4.9-1.34-11.76,3-12.86,2.71-.72,8.07,5.16,9.82,7.83s6.93,5.78,9.88,4.62c3.64-1.42,1.38-14.29,5.25-14.74,5.83-.69,12.53,19.87,15.09,47.68.85,9.27,13,56.51-12.27,43.2-8.72-4.59-26.09-27-32.11-34.6C63.46,472.57,56.43,462.12,51.41,450.61Z"/><path class="cls-3" d="M217.71,494l-13.63-67.78a239.19,239.19,0,0,0-45.41,30.84c-4.91,4.23-9.71,8.74-13.13,14.25s-5.67,12.28-4,18.55c6.88,26.74,29.7,21.86,33.2,20.77A352.61,352.61,0,0,0,217.71,494Z"/><path class="cls-4" d="M229.05,490.33l-9.29-6c-11.32,4.9-26.57,10.83-38.34,14.51-3.5,1.1-26.32,6-33.21-20.76a20.39,20.39,0,0,1,.67-11.38,43.39,43.39,0,0,0-3.34,4.62c-3.41,5.51-5.67,12.27-4,18.55,6.88,26.74,29.7,21.86,33.2,20.77C189.37,506,215.1,496.8,229.05,490.33Z"/><path class="cls-2" d="M549,434.16c.74-2.3,1.22-6.38-1.81-7-6-1.19-10.85,11.82-16.75,10.13-4-1.14-3.31-6.17-3.41-10.34-.13-4.88.18-11.75-4.26-12.41-2.76-.44-7.52,5.89-9,8.7s-6.33,6.38-9.38,5.52c-3.76-1-2.77-14-6.67-14-5.87-.1-10.52,20.85-10.33,48.58.06,9.24-7.42,57.08,16.45,41.46,8.23-5.38,23.31-29.22,28.56-37.31C539.12,457,545.09,446,549,434.16Z"/><path class="cls-2" d="M456.75,481.42c3.24.59,44.83,19.18,44.83,19.18l-7.8,7.27L428,496Z"/><path class="cls-3" d="M387.76,495,395,426.22a239.56,239.56,0,0,1,48.09,26.47c5.29,3.75,10.48,7.79,14.4,13s6.79,11.7,5.76,18.1c-4.36,27.26-27.53,24.53-31.12,23.77A353.64,353.64,0,0,1,387.76,495Z"/><path class="cls-4" d="M376.12,492.37l8.69-6.84c11.73,3.82,27.47,8.3,39.54,10.87,3.58.76,26.76,3.49,31.12-23.77a20.25,20.25,0,0,0-1.73-11.26,41.41,41.41,0,0,1,3.76,4.28c3.91,5.18,6.79,11.7,5.76,18.1-4.36,27.26-27.53,24.53-31.12,23.77C417.09,504.31,390.62,497.52,376.12,492.37Z"/><path class="cls-4" d="M484.36,327.37c3.05-7.67-2.27-18.4-10.5-17.95,3.83-3,7.75-6,10.36-10.08s3.73-9.46,1.58-13.8c-3.06-6.22-11.59-7.89-18.17-5.71s-11.77,7.15-17.1,11.58a131.75,131.75,0,0,1-41.06,23.09c-12.57,4.33-26.67,6.68-39,1.7l-.61,60.53c-1.5-.07-.7,2.42.56,3.23,16.11,10.3,37,9.53,55.57,5,14.47-3.54,28.77-9.37,39.58-19.62,3.71-3.52,7.1-7.85,7.61-12.94s-3-10.8-8.09-11.06C473.1,339.37,481.32,335,484.36,327.37Z"/><path class="cls-4" d="M121,324.06c-2.68-7.8,3.15-18.26,11.35-17.42-3.69-3.14-7.45-6.36-9.87-10.56s-3.27-9.63-.93-13.87c3.36-6.06,12-7.33,18.43-4.83s11.41,7.7,16.53,12.38a131.89,131.89,0,0,0,39.91,25c12.36,4.93,26.33,7.94,38.89,3.56L233,378.82c1.5,0,.59,2.45-.71,3.2-16.59,9.52-37.41,7.76-55.75,2.33-14.28-4.22-28.29-10.73-38.6-21.48-3.54-3.7-6.72-8.18-7-13.28s3.49-10.66,8.6-10.67C131.65,336.59,123.65,331.87,121,324.06Z"/><path class="cls-3" d="M220.81,281s6.42,24.62,0,40.82S185.7,371.29,180.44,425c-3.76,38.32,27.07,86.92,120.13,86.92,76.54,0,122.87-35.88,125.87-73.59,4.91-61.76-39.94-93.23-49.33-117.4C366.43,293.41,369,269,369,269Z"/><path class="cls-5" d="M256.13,288.08c-5.1,10.62-24,60.47-25.06,102.38-1.17,44.12,36.95,69.25,72.4,66.05,44.4-4,70.22-27.07,65.1-70.68-5.75-49-30.23-97.75-30.23-97.75Z"/><path class="cls-4" d="M328.16,312.77c11.82,1.5,47.47,4.1,47.47,4.1s-4.85-11.66-6.37-29.5c-11.28-1.32-20.56.07-31.83,1.47a412,412,0,0,1-58.23,3.07q-14.58-.27-29.13-1.56c-6.28-.55-19.06-4.78-24-.13C247,305.92,315.56,311.18,328.16,312.77Z"/><path class="cls-1" d="M234.18,391c16.86,19.53,41.07,32.38,66.59,36.15,12.6,1.86,25.74,1.54,37.7-2.82,16-5.82,28.65-18.36,38.43-32.25,18.31-26,27.9-60.54,16-90-3-7.48-7.81-14.86-15.27-17.93-4.57-1.89-9.66-1.95-14.6-2-40.31-.29-81.43-3-121.67-.71-30.92,1.76-34.77,32.77-30.74,58.7A102.8,102.8,0,0,0,234.18,391Z"/><path class="cls-3" d="M290.22,111.88c-41.36-.54-123.32,27.84-123.32,97,0,91.9,127.08,97,127.08,97,68.42,1.51,137.94-32.33,137.6-94.23C431.25,151.36,367.14,112.87,290.22,111.88Z"/><path class="cls-3" d="M276.23,117.42c5.54-5,10.14-11.52,10.88-18.93s-3.34-15.58-10.45-17.79a28.47,28.47,0,0,1,21.55,19,27.45,27.45,0,0,1,12.14-12.43q-.86,8-1.7,16a16.76,16.76,0,0,1,14-7.66,23.15,23.15,0,0,0,2.24,28.16Z"/><path class="cls-3" d="M170.31,190.57c-11.21,9.58-22.9,19.84-27.68,33.79a20.08,20.08,0,0,1,11.72-4.13,80.9,80.9,0,0,0-1.68,18.69,38.48,38.48,0,0,1,36.63,9.62c.3.29.67.61,1.07.51s.33-.91-.06-.77Z"/><path class="cls-3" d="M419.82,183.78l21.27,15-6.28,5A89,89,0,0,1,452,227.92a258,258,0,0,0-41.28-5.86Z"/><path class="cls-6" d="M220,236.48c.28,12,18.83,43.48,79.29,42,63.1-1.56,75-36.1,75-36.1C374.61,228,220,236.48,220,236.48Z"/><path class="cls-2" d="M211.66,232.41c-2.13,13.56,49.24,29.16,94.75,26.33,43.37-2.69,78.89-13.33,79-26.35s-19.55-14.83-40.54-22.73S320.3,186.5,296.12,189s-21,15-43.59,20.22S214.49,214.47,211.66,232.41Z"/><path class="cls-7" d="M243,218.07a20.16,20.16,0,0,0-6.87,2.18c-2.05,1.26-3.69,3.5-3.52,5.91.27,3.85,4.57,5.93,8.29,7a96.79,96.79,0,0,0,13.7,2.82,20.83,20.83,0,0,0,7.47,0c5-1.2,8.51-5.46,11.65-9.48,2.37-3,4.85-6.5,4.44-10.33a3.7,3.7,0,0,0-.87-2.18c-.88-.91-2.29-1-3.55-1C263.41,213,253.12,216.17,243,218.07Z"/><path class="cls-8" d="M245.78,172.51a9.71,9.71,0,1,1-9.71-9.71A9.71,9.71,0,0,1,245.78,172.51Z"/><circle class="cls-9" cx="232.95" cy="169.47" r="4.28"/><path class="cls-8" d="M377.11,180.86a9.71,9.71,0,1,1-9.71-9.71A9.71,9.71,0,0,1,377.11,180.86Z"/><circle class="cls-9" cx="364.28" cy="177.82" r="4.28"/><path class="cls-8" d="M233.21,157c3-.71,6.35.21,9.18-1a2.86,2.86,0,0,0,1.19-.86,2.46,2.46,0,0,0-.92-3.28c-4.06-2.64-15.08.16-18.92,2.81-1.69,1.17-2.51,2.24-.82,3.84C225.78,161.21,230.28,157.71,233.21,157Z"/><path class="cls-8" d="M371.67,162.26c2.92,1,5.22,3.62,8.28,4.1a2.81,2.81,0,0,0,1.47-.08,2.45,2.45,0,0,0,1-3.25c-2-4.42-12.77-8-17.43-7.87-2.06.06-3.33.52-2.77,2.78C363.16,161.77,368.83,161.26,371.67,162.26Z"/><path class="cls-5" d="M243.1,131.87a1.2,1.2,0,0,0,0-2.39,1.2,1.2,0,0,0,0,2.39Z"/><path class="cls-5" d="M243.1,131.83a14,14,0,0,1,11.75,5.79,1.21,1.21,0,0,0,1.63.43,1.19,1.19,0,0,0,.42-1.63,16.37,16.37,0,0,0-13.8-7c-1.53.05-1.54,2.43,0,2.38Z"/><path class="cls-5" d="M260.85,145A14.18,14.18,0,0,1,266,156.74c-.09,1.54,2.3,1.53,2.39,0a16.41,16.41,0,0,0-5.85-13.43,1.21,1.21,0,0,0-1.68,0,1.2,1.2,0,0,0,0,1.68Z"/><path class="cls-5" d="M275.8,156.27a18.94,18.94,0,0,1,1.66,10.67,1.24,1.24,0,0,0,.83,1.47,1.2,1.2,0,0,0,1.47-.84,21.8,21.8,0,0,0-1.9-12.5,1.19,1.19,0,0,0-2.06,1.2Z"/><path class="cls-5" d="M288.19,169.75c.43,3.52.87,7,1.3,10.56a1.23,1.23,0,0,0,1.19,1.19,1.19,1.19,0,0,0,1.19-1.19q-.64-5.28-1.3-10.56a1.23,1.23,0,0,0-1.19-1.19,1.2,1.2,0,0,0-1.19,1.19Z"/><path class="cls-5" d="M306.88,179.3a19.18,19.18,0,0,1,4-10.86,1.2,1.2,0,0,0-.43-1.63,1.22,1.22,0,0,0-1.63.43,21.32,21.32,0,0,0-4.34,12.06c-.06,1.53,2.32,1.53,2.39,0Z"/><path class="cls-5" d="M319.67,179.5l5.83-13.9a1.2,1.2,0,0,0-.83-1.47,1.23,1.23,0,0,0-1.47.84q-2.91,6.94-5.83,13.9a1.21,1.21,0,0,0,.83,1.47,1.23,1.23,0,0,0,1.47-.84Z"/><path class="cls-5" d="M336.79,159.31a33.54,33.54,0,0,1,15.73-14,1.19,1.19,0,1,0-1.2-2.06,35.65,35.65,0,0,0-16.59,14.82,1.2,1.2,0,0,0,2.06,1.21Z"/><path class="cls-5" d="M357.15,139.43a40.18,40.18,0,0,1,10.62-6,1.19,1.19,0,1,0-.63-2.3,43.79,43.79,0,0,0-11.68,6.61,1.19,1.19,0,0,0,0,1.68,1.23,1.23,0,0,0,1.69,0Z"/><path class="cls-5" d="M336.07,141.94a85.72,85.72,0,0,1,14.45-11.66c1.29-.82.1-2.89-1.2-2.06a89.09,89.09,0,0,0-14.94,12,1.2,1.2,0,0,0,1.69,1.69Z"/><path class="cls-5" d="M327.17,155.21a26.86,26.86,0,0,1,3.27-10.35,1.19,1.19,0,0,0-2.06-1.2,29.75,29.75,0,0,0-3.6,11.55A1.2,1.2,0,0,0,326,156.4a1.23,1.23,0,0,0,1.2-1.19Z"/><path class="cls-5" d="M307.91,160.57a38.08,38.08,0,0,0,.58-15.69,1.21,1.21,0,0,0-1.47-.83,1.22,1.22,0,0,0-.83,1.47,35,35,0,0,1-.58,14.41,1.19,1.19,0,0,0,2.3.64Z"/><path class="cls-5" d="M293.68,155.75a28.55,28.55,0,0,0-4.07-16.07,1.19,1.19,0,0,0-2.05,1.2,26.34,26.34,0,0,1,3.74,14.87c-.07,1.54,2.31,1.53,2.38,0Z"/><path class="cls-5" d="M279.69,142.44a30.64,30.64,0,0,0-8.53-12.78c-1.15-1-2.84.67-1.69,1.69a28.09,28.09,0,0,1,7.92,11.72,1.24,1.24,0,0,0,1.47.84,1.2,1.2,0,0,0,.83-1.47Z"/><path class="cls-5" d="M262.66,125.07a16.4,16.4,0,0,0-4.94-5.93,1.19,1.19,0,0,0-1.63.43,1.22,1.22,0,0,0,.43,1.63c.18.14-.11-.08,0,0l.17.14.32.26.64.58a13.39,13.39,0,0,1,1.2,1.3l.12.14c.08.11.1.13,0,0l.27.37c.17.23.33.47.48.71a13.84,13.84,0,0,1,.86,1.55,1.21,1.21,0,0,0,1.64.43,1.23,1.23,0,0,0,.42-1.63Z"/><path class="cls-5" d="M286.65,129.62,280.33,119a1.2,1.2,0,0,0-2.06,1.21l6.32,10.63a1.19,1.19,0,0,0,2.06-1.2Z"/><path class="cls-5" d="M303.3,134.91a13.27,13.27,0,0,1,1.53-12.12,1.2,1.2,0,0,0-.43-1.63,1.21,1.21,0,0,0-1.63.43A15.53,15.53,0,0,0,301,135.54a1.22,1.22,0,0,0,1.47.83,1.2,1.2,0,0,0,.83-1.46Z"/><path class="cls-5" d="M317.25,133.75a27.85,27.85,0,0,1,10.17-10.55,1.19,1.19,0,0,0-1.2-2.06,30.25,30.25,0,0,0-11,11.4c-.74,1.35,1.32,2.55,2.06,1.21Z"/><path class="cls-5" d="M334.83,131.37a1.2,1.2,0,0,0,0-2.39,1.2,1.2,0,0,0,0,2.39Z"/><path class="cls-5" d="M335.5,130.8a34.41,34.41,0,0,1,11.21-5.88c1.46-.45.84-2.76-.63-2.3a37.4,37.4,0,0,0-12.26,6.5,1.19,1.19,0,0,0,0,1.68,1.21,1.21,0,0,0,1.68,0Z"/><path class="cls-9" d="M227.15,333.91c4.06,15.27,8.31,30.95,17.76,43.6,2.92,3.92,6.41,7.57,10.77,9.78s9.74,2.81,14.16.72a13.43,13.43,0,0,0,6.2-17.09c-2.44-5.29-8-8.24-12.86-11.46a71.9,71.9,0,0,1-26.73-32.7c-1.22-3-6.29-19.58-11.29-18.09C219.86,310.24,226.25,330.5,227.15,333.91Z"/><path class="cls-10" d="M125,246.45a15.48,15.48,0,0,0,2.15-1.5,10.18,10.18,0,0,0,3.28-6.93,26.77,26.77,0,0,0-.73-7.81,170.27,170.27,0,0,0-4.91-18.77s-7.45-26.5-11.83-24.72c-1.82,0,2.47,17,5.33,26.92l-5.61,1.91q-4.2-10.14-9.31-19.88c-1.17-2.22-2.86-5.82-5.25-4.89-1.7.38,5,16.64,9.4,26.53l-6.7,2.28q-4.56-8.76-9.8-17.13c-1.33-2.12-3.3-5.58-5.61-4.47-1.63.5,6,15.61,11.12,25.16,2.12,5.32,5.17,10.21,7.56,15.43,1.78,3.87,7,10.25,13.36,10.15,3.9,22.12,16.09,88.52,31.55,82.61S134.53,264.83,125,246.45Z"/><path class="cls-10" d="M484.7,258.19c4.34-16.53,31-76.2,26.24-79.13s-18.6,2.69-28.63,26.16c-7.46,17.45-5.45,50.26-5.45,50.26-9.64,21.49-35.71,81.21-19.88,85S482,280.23,484.7,258.19Z"/><path class="cls-2" d="M329.82,333.47c-8.36-12.66-25.27-.6-25.29-.58v-.1s-17.09-11.86-25.29.92c-7.26,11.32,25.53,41,25.56,41.07v.09S337.23,344.71,329.82,333.47Z"/></svg>