<svg id="Layer_2" data-name="Layer 2" xmlns="http://www.w3.org/2000/svg" viewBox="0 0 600 600"><defs><style>.cls-1{fill:#cccbbc;}.cls-2{fill:#fac042;}.cls-3{fill:#f7cd48;}.cls-4{fill:#e9b13f;}.cls-5{fill:#d52f28;}.cls-6{fill:#f25a29;}.cls-7{fill:#f77e41;}.cls-8{fill:#231f20;}.cls-9{fill:#fff;}.cls-10{fill:#e5e5d1;}</style></defs><polygon class="cls-1" points="152.92 326.19 173.58 298.25 199.52 304.9 235.12 282.09 304.58 321.66 393.45 290.44 411.64 314.6 429.83 298.25 444.8 321.66 429.83 373.2 297.3 419.37 199.52 373.2 152.92 326.19 152.92 326.19 152.92 326.19"/><path class="cls-2" d="M226.11,292.67s5.65,21.68,0,36-30.94,43.56-35.58,90.87c-3.31,33.77,23.86,76.59,105.86,76.59,67.45,0,108.27-31.62,110.92-64.84,4.33-54.42-35.2-82.16-43.47-103.46a108.52,108.52,0,0,1-7.18-45.71Z"/><path class="cls-3" d="M257.23,298.87c-4.49,9.36-21.11,53.29-22.08,90.23-1,38.87,32.56,61,63.8,58.19,39.12-3.53,61.88-23.85,57.36-62.28-5.06-43.16-26.63-86.14-26.63-86.14Z"/><path class="cls-4" d="M320.71,320.63c10.41,1.32,43.17,3,43.17,3s-5.66-9-7-24.75c-9.94-1.16-18.07-.56-28,.67a365.16,365.16,0,0,1-51.31,2.71q-12.85-.24-25.68-1.37c-5.53-.49-16.79-4.22-21.17-.12C249.18,314.6,309.6,319.23,320.71,320.63Z"/><path class="cls-2" d="M287.27,143.6c-36.44-.47-108.66,24.54-108.66,85.5,0,81,112,85.45,112,85.45,60.3,1.33,121.56-28.49,121.26-83C411.55,178.39,355.06,144.48,287.27,143.6Z"/><path class="cls-2" d="M275,148.48c4.88-4.38,8.93-10.14,9.58-16.67s-2.94-13.73-9.21-15.68a25.07,25.07,0,0,1,19,16.74,24.25,24.25,0,0,1,10.7-11l-1.5,14.15a14.81,14.81,0,0,1,12.36-6.76,20.4,20.4,0,0,0,2,24.82Z"/><path class="cls-2" d="M181.61,212.94c-9.88,8.45-20.18,17.49-24.4,29.78a17.67,17.67,0,0,1,10.33-3.63,71.61,71.61,0,0,0-1.48,16.46A33.91,33.91,0,0,1,198.34,264c.26.26.59.54.95.45s.29-.8-.06-.68Z"/><path class="cls-2" d="M401.48,207l18.74,13.19-5.53,4.36a78.85,78.85,0,0,1,15.14,21.34,226.7,226.7,0,0,0-36.38-5.16Z"/><path class="cls-5" d="M225.86,261.09c-.33,10.6,14.49,39.16,67.76,40.74,55.59,1.66,67.75-28.16,67.75-28.16C362.36,261.09,225.86,261.09,225.86,261.09Z"/><path class="cls-6" d="M218.77,257.11c-2.53,11.82,41.92,28,82.11,27.72,38.28-.28,70-7.94,70.77-19.39s-16.49-14-34.58-22-20.51-21.55-41.9-20.49S276,235.21,255.84,238.68,222.12,241.46,218.77,257.11Z"/><path class="cls-7" d="M247,246a17.63,17.63,0,0,0-6.14,1.59,6,6,0,0,0-3.39,5c0,3.41,3.74,5.44,7,6.55a84.66,84.66,0,0,0,11.92,3.14,18.25,18.25,0,0,0,6.58.32c4.42-.81,7.74-4.39,10.7-7.78,2.23-2.55,4.58-5.49,4.4-8.87a3.24,3.24,0,0,0-.66-2,4.19,4.19,0,0,0-3.07-1C265.24,242.47,256,244.81,247,246Z"/><circle class="cls-8" cx="245.75" cy="221.13" r="8.55"/><path class="cls-9" d="M246.77,218.45a3.78,3.78,0,1,1-3.77-3.78A3.77,3.77,0,0,1,246.77,218.45Z"/><path class="cls-8" d="M363.44,229.1a8.56,8.56,0,1,1-8.56-8.56A8.55,8.55,0,0,1,363.44,229.1Z"/><circle class="cls-9" cx="352.13" cy="226.42" r="3.77"/><path class="cls-3" d="M245.75,161.22a1.05,1.05,0,0,0,0-2.1,1.05,1.05,0,0,0,0,2.1Z"/><path class="cls-3" d="M245.75,161.19a12.26,12.26,0,0,1,10.35,5.1,1.08,1.08,0,0,0,1.44.38,1.07,1.07,0,0,0,.38-1.44,14.49,14.49,0,0,0-12.17-6.15c-1.35,0-1.36,2.15,0,2.11Z"/><path class="cls-3" d="M261.39,172.79a12.49,12.49,0,0,1,4.54,10.35c-.08,1.35,2,1.35,2.1,0a14.49,14.49,0,0,0-5.15-11.84,1.08,1.08,0,0,0-1.49,0,1.07,1.07,0,0,0,0,1.49Z"/><path class="cls-3" d="M274.57,182.72a16.73,16.73,0,0,1,1.46,9.4,1.1,1.1,0,0,0,.73,1.3,1.07,1.07,0,0,0,1.3-.74,19.21,19.21,0,0,0-1.68-11,1,1,0,0,0-1.81,1.06Z"/><path class="cls-3" d="M285.48,194.6q.58,4.65,1.15,9.3a1.08,1.08,0,0,0,1.05,1,1.06,1.06,0,0,0,1.05-1l-1.14-9.3a1.09,1.09,0,0,0-1.06-1,1.06,1.06,0,0,0-1,1Z"/><path class="cls-3" d="M303.67,192.39A18.75,18.75,0,0,0,299.85,203c-.06,1.36,2,1.35,2.1,0a16.81,16.81,0,0,1,3.54-9.56,1.06,1.06,0,0,0-.38-1.44,1.08,1.08,0,0,0-1.44.38Z"/><path class="cls-3" d="M313.22,203.19q2.58-6.12,5.14-12.25a1.06,1.06,0,0,0-.73-1.29,1.09,1.09,0,0,0-1.3.73l-5.13,12.26a1,1,0,1,0,2,.55Z"/><path class="cls-3" d="M328.31,185.4a29.52,29.52,0,0,1,13.86-12.31,1.06,1.06,0,0,0,.38-1.44,1.09,1.09,0,0,0-1.44-.38,31.44,31.44,0,0,0-14.61,13.07,1,1,0,0,0,1.81,1.06Z"/><path class="cls-3" d="M346.25,167.89a35,35,0,0,1,9.36-5.28,1.08,1.08,0,0,0,.74-1.3,1.06,1.06,0,0,0-1.29-.73,38.53,38.53,0,0,0-10.3,5.82,1.05,1.05,0,0,0,1.49,1.49Z"/><path class="cls-3" d="M327.67,170.09a76.32,76.32,0,0,1,12.74-10.27c1.14-.73.09-2.55-1.06-1.81a78,78,0,0,0-13.16,10.6,1,1,0,0,0,1.48,1.48Z"/><path class="cls-3" d="M319.83,181.78a23.5,23.5,0,0,1,2.89-9.11c.66-1.18-1.16-2.24-1.82-1.06a26.27,26.27,0,0,0-3.17,10.17,1,1,0,0,0,1,1.05,1.08,1.08,0,0,0,1.05-1.05Z"/><path class="cls-3" d="M302.86,186.51a33.37,33.37,0,0,0,.51-13.82,1.06,1.06,0,0,0-1.29-.74,1.08,1.08,0,0,0-.73,1.3,30.74,30.74,0,0,1-.52,12.7,1.05,1.05,0,0,0,2,.56Z"/><path class="cls-3" d="M290.33,182.27a25.28,25.28,0,0,0-3.59-14.17,1,1,0,0,0-1.81,1.06,23.29,23.29,0,0,1,3.29,13.11c-.06,1.35,2,1.35,2.11,0Z"/><path class="cls-3" d="M278,170.53a27.06,27.06,0,0,0-7.53-11.25c-1-.9-2.5.58-1.48,1.48a24.94,24.94,0,0,1,7,10.33,1.08,1.08,0,0,0,1.29.74,1.07,1.07,0,0,0,.74-1.3Z"/><path class="cls-3" d="M263,155.22a14.47,14.47,0,0,0-4.36-5.22,1,1,0,0,0-1.43.38,1.08,1.08,0,0,0,.37,1.44c.16.12-.09-.08,0,0l.16.13.28.23c.19.16.38.33.56.51a11.55,11.55,0,0,1,1.06,1.15l.1.12c.08.09.1.12,0,0l.24.32.43.63a14.05,14.05,0,0,1,.76,1.37,1.05,1.05,0,0,0,1.43.37,1.08,1.08,0,0,0,.38-1.44Z"/><path class="cls-3" d="M284.13,159.24q-2.79-4.69-5.57-9.38a1.05,1.05,0,0,0-1.82,1.06l5.58,9.38a1,1,0,0,0,1.81-1.06Z"/><path class="cls-3" d="M298.8,163.9a11.7,11.7,0,0,1,1.35-10.68,1.06,1.06,0,0,0-.38-1.44,1.08,1.08,0,0,0-1.44.38,13.71,13.71,0,0,0-1.56,12.3,1.09,1.09,0,0,0,1.3.73,1.06,1.06,0,0,0,.73-1.29Z"/><path class="cls-3" d="M311.09,162.87a24.61,24.61,0,0,1,9-9.29,1.05,1.05,0,0,0-1.06-1.82,26.82,26.82,0,0,0-9.73,10.05c-.65,1.19,1.17,2.25,1.82,1.06Z"/><path class="cls-3" d="M326.59,160.78a1.05,1.05,0,0,0,0-2.1,1.05,1.05,0,0,0,0,2.1Z"/><path class="cls-3" d="M327.18,160.28a30.35,30.35,0,0,1,9.87-5.19c1.29-.39.74-2.42-.55-2a33.16,33.16,0,0,0-10.81,5.72,1.07,1.07,0,0,0,0,1.49,1.08,1.08,0,0,0,1.49,0Z"/><path class="cls-10" d="M152.92,326.19S95.53,517.33,304.58,517.33c204.18,0,140.22-195.67,140.22-195.67l-33,21.9-38.47-5.37-13.71,18.7-49.48-13.33-36.82,22.18-8.79-31-41.1,22.15L194.24,314.6l-15.87,29Z"/><path class="cls-9" d="M168.56,404.1c1.67,8.64,3.74,17.34,8,25s10.88,14.45,19.28,17.08a16.81,16.81,0,0,0,9.87.4c8.85-2.72,11.62-14.34,9.45-23.34s-7.61-17-9.49-26.06c-1.07-5.12-1-10.41-1.55-15.6-1.4-12.37-13.21-26.14-26.63-19.26C163.34,369.61,166.17,391.73,168.56,404.1Z"/><path class="cls-10" d="M167.16,210.88s33.57-138,135-127.66S427.43,225.85,427.43,225.85l-42.75,17.49-18.94-33.47L329.21,220l-25-14.49L271,218.88,255.7,199.21,218.24,218.5l-13.77-15.93Z"/><path class="cls-9" d="M218,137.64c-3.39,6-6.41,12.46-6.68,19.34s2.76,14.27,8.88,17.41c6.27,3.21,14.23,1.2,19.71-3.22s9-10.82,12-17.18,5.77-13,10.27-18.39c5.16-6.2,13.23-11.93,10.87-21.1-1.84-7.14-9.08-12.94-16.46-12C239.75,104.8,225.59,124.18,218,137.64Z"/><path class="cls-2" d="M419.88,273.44A60.23,60.23,0,0,1,415,239.93c.1-.72.17-1.58-.39-2a1.86,1.86,0,0,0-.81-.33c-8-1.57-18.17,10.34-15.86,17.89C400.56,264,411.17,272.56,419.88,273.44Z"/></svg>