<svg id="Layer_2" data-name="Layer 2" xmlns="http://www.w3.org/2000/svg" viewBox="0 0 436.29 639.44"><defs><style>.cls-1{fill:#f25a29;}.cls-2{fill:#fac042;}.cls-3{fill:#e9b13f;}.cls-4{fill:#f7cd48;}.cls-5{fill:#231f20;}.cls-6{fill:#fff;}.cls-7{fill:#d52f28;}.cls-8{fill:#f77e41;}.cls-9{fill:#63a345;}.cls-10{fill:#5b913f;}.cls-11{fill:#75ba50;}</style></defs><path class="cls-1" d="M183.53,539.54c-.47,3.06-10.41,50.27-11.73,50.08l-10.51-1.52,3.8-53.91Z"/><path class="cls-2" d="M159.7,494.85l52.24-3.41a181.58,181.58,0,0,1-13.58,39.28c-2.13,4.42-4.48,8.82-7.83,12.4s-7.86,6.57-12.77,6.63c-20.9.24-21.83-17.41-21.72-20.18A266.11,266.11,0,0,1,159.7,494.85Z"/><path class="cls-3" d="M160.15,485.83l6.22,5.61c-1.34,9.24-2.67,21.56-3,30.89-.11,2.77.83,20.42,21.73,20.18a15.42,15.42,0,0,0,8.18-2.74,31.23,31.23,0,0,1-2.71,3.35c-3.36,3.58-7.86,6.57-12.77,6.63-20.9.24-21.83-17.41-21.72-20.18C156.5,517.93,158.17,497.31,160.15,485.83Z"/><path class="cls-1" d="M171.24,575.29s67.42-6.09,69.76.13c1.89,5-15.2,6.17-14,12.24s12.88,10.47,9.56,14-21.34-.83-25.1,3.33,6.2,17.24-.1,20.14c-11.73,5.4-50.05-37.2-50.05-37.2Z"/><path class="cls-1" d="M325.89,518.37c2.1,2.26,32.87,39.43,31.89,40.34L350.06,566l-39.84-36.52Z"/><path class="cls-2" d="M276.08,509.2l29.84-43a181.25,181.25,0,0,1,22.29,35.08c2.14,4.41,4.12,9,4.84,13.85s.25,10.23-2.76,14.11c-12.82,16.51-27.21,6.26-29.32,4.45A267.51,267.51,0,0,1,276.08,509.2Z"/><path class="cls-3" d="M272.49,506.48l7.14-2.4a268.12,268.12,0,0,0,20.22,19.38c2.1,1.81,16.49,12.06,29.31-4.45a15.39,15.39,0,0,0,3-8.11,32.1,32.1,0,0,1,.93,4.22c.71,4.85.25,10.23-2.76,14.11-12.82,16.51-27.21,6.26-29.32,4.45C292.15,526.07,280.24,515.17,272.49,506.48Z"/><path class="cls-1" d="M346.22,550.24s37.19-56.57,43.52-54.54c5.1,1.64-4.62,15.75.85,18.6s16.22-3.57,16.89,1.21-13.93,16.19-13,21.72,17.36,5.88,15.71,12.62c-3.08,12.53-60.27,16-60.27,16Z"/><path class="cls-2" d="M314.89,266.3l-78.53,15.25c9.31,27.43,5,71.35-29.26,84.82-19.9,7.82-47.51,27.87-104.86-13a51.59,51.59,0,0,0,.68,29.54,62.77,62.77,0,0,1-17.56-15.34,55.39,55.39,0,0,0,1.47,19.57A43.17,43.17,0,0,1,65.7,369.94a213.43,213.43,0,0,0,60.85,121l.41-.29c13.12,15.51,33.29,28,63.09,33,92.7,15.62,164.26-52.91,171.59-113.81C372.75,317.65,314.89,266.3,314.89,266.3Z"/><path class="cls-4" d="M305.5,293.14c-1.85,9.28,3.81,18.3,7,26.55a105.07,105.07,0,0,1,7,40.82c-.58,18.39-6,36.49-5.25,54.87s10.4,38.46,28.2,42.87c11-16.09,17.93-33.54,20-50.41,8-66.82-20.11-112.18-36.23-132.1C316.19,277.63,307.53,282.94,305.5,293.14Z"/><path class="cls-2" d="M216.91,152.57C174,175.49,149.37,214.66,170.79,269.8c14.36,37,69.6,67.73,119,49.95,72.87-26.22,97.6-78.52,80.62-121.19S300.45,108,216.91,152.57Z"/><path class="cls-2" d="M217.41,166.62c8.44-10.93,8.7-27.44.62-38.64a44,44,0,0,1,14.5,8.17,75.3,75.3,0,0,0-4.12-28.43q9.17,10.55,17.49,21.79A33.6,33.6,0,0,1,262,110.87c-8,16.64-2,38.8,13.44,49Z"/><path class="cls-1" d="M348.34,163.68c-4,12.7.34,18.65-.49,25.7s-12.38,16.78-6.93,25.92c15,25.17,44.37,8.19,44.37,8.19s48.16-38.69,33.61-63.83c-8.1-14-47.46,5.83-47.46,5.83C359.34,168.54,348.34,163.68,348.34,163.68Z"/><path class="cls-4" d="M232.79,164.3c-2.19-1.6-5.12-1.69-7.82-1.46-11.49,1-31.4,8.57-45.57,40.67a25.74,25.74,0,0,0,.9,21.79c2.17,4.16,6.29,7.7,11,7.62,5.33-.1,9.5-4.64,12.09-9.3,6.49-11.66,7.83-26.51,17.6-35.6,3.78-3.51,8.59-5.9,11.83-9.91S237,167.34,232.79,164.3Z"/><path class="cls-5" d="M306.25,185.07a8.55,8.55,0,1,1-10.63-5.77A8.56,8.56,0,0,1,306.25,185.07Z"/><path class="cls-6" d="M298.27,184.65a3.77,3.77,0,1,1-4.69-2.55A3.79,3.79,0,0,1,298.27,184.65Z"/><path class="cls-5" d="M280.88,178.05c.95-2.56,3.26-4.55,3.72-7.24a2.45,2.45,0,0,0-.05-1.29,2.16,2.16,0,0,0-2.85-.93c-3.92,1.7-7.24,11.14-7.16,15.26,0,1.81.41,2.93,2.41,2.48C280.34,185.55,280,180.54,280.88,178.05Z"/><path class="cls-7" d="M418.89,159.67a8.67,8.67,0,0,0-3.14-3.14c-.13,8.79-5.05,16.93-10.6,23.84a116.48,116.48,0,0,1-54.77,37.69,29.29,29.29,0,0,1-6.38,1.63c15.6,18.65,41.28,3.81,41.28,3.81S433.44,184.8,418.89,159.67Z"/><path class="cls-8" d="M354.56,196.77a5.38,5.38,0,0,0,1.28,2.25c1.41,1.37,3.62,1.39,5.56,1.11a36.07,36.07,0,0,0,14-5.34,30.23,30.23,0,0,0,7.65-6.45,13,13,0,0,0,2.22-3.75,3.83,3.83,0,0,0,.13-2.62,3.28,3.28,0,0,0-2.89-1.84,10.88,10.88,0,0,0-3.56.58,62.21,62.21,0,0,1-8.76,1.72,41,41,0,0,0-7.24,1.19c-2.23.71-4.92,2-6.29,4-1,1.39-1.18,3.31-1.81,4.86A5.76,5.76,0,0,0,354.56,196.77Z"/><rect class="cls-5" x="256.39" y="136.97" width="9.18" height="298.34" transform="translate(-112.87 185.03) rotate(-32.5)"/><path class="cls-9" d="M110.52,68.15C10.63,146.24-15.4,279.82,52.37,366.52c-9.21-11.78-.53-33.95,19.4-49.53s43.53-18.64,52.74-6.86c-9.21-11.78-.53-34,19.4-49.53s43.53-18.64,52.74-6.86c-9.21-11.78-.53-34,19.4-49.53s43.53-18.65,52.74-6.87c-9.21-11.78-.53-34,19.4-49.53s43.53-18.64,52.74-6.86c-9.21-11.78-.53-34,19.4-49.53s43.53-18.64,52.74-6.86l1-.81C346.33-2.95,210.41-9.93,110.52,68.15Z"/><path class="cls-10" d="M149.55,44.37c4-3.13,9.14-5.26,13.25-8.11-17.72,8.22-36,17.81-52.28,30.53-99.89,78.08-125.92,213-58.15,299.73-9.21-11.78-.53-33.95,19.4-49.53.52-.41,1.92-1.44,2.45-1.84C30.68,229.71,60,114.37,149.55,44.37Z"/><path class="cls-5" d="M309.67,362l7.44-5.12,26.4,44.59s8.37,14.27,23.41,4.87c7.78-4.86-.17-24.77,5.81-30.75,3-3,11.51-.35,13.58,10.51,2.22,11.61,4.87,34.59-13.32,42.81-16.92,7.63-36.14,2.55-44.6-7.7s-30.5-52-30.5-52Z"/><path class="cls-3" d="M246.61,382.09a195.23,195.23,0,0,0,27.05-4.72c7.58-1.87,15.19-4.27,21.56-8.78,6.61-4.67,11.55-11.38,18-16.27a10.37,10.37,0,0,1,4.72-2.32c4.5-.61,8.17,4.31,8.06,8.85s-2.79,8.55-5.36,12.29c2.69-.37,5.31,1.52,6.49,4a13.52,13.52,0,0,1,.74,8,30,30,0,0,1-10.7,18.56c5.1,2,4.47,9.47,2.1,14.4-7.12,14.75-21.28,25.33-36.8,30.55s-32.32,5.53-48.58,3.65c-17.28-2-36.74-16.46-33.21-36.27C205,389.84,225.77,384.22,246.61,382.09Z"/><path class="cls-4" d="M297.25,374.87c-7.88,7-18.37,10.16-28.44,13.32a41.82,41.82,0,0,0-9.63,4c-.9.56-1.87,1.44-1.68,2.48s1.66,1.56,2.83,1.69a58.86,58.86,0,0,0,43.18-12.94,23.2,23.2,0,0,0,5.67-6.31c1.9-3.42,3.64-9.53-1.44-10.16C304,366.46,299.65,372.74,297.25,374.87Z"/><polygon class="cls-5" points="108.23 69.96 82.38 22.3 85.83 18.28 123.6 58.56 108.23 69.96"/><path class="cls-11" d="M180.31,73.63c6,1.38,12.33.81,18.52.58A164,164,0,0,1,244.27,79c8.94,2.23,17.76,5.23,26.94,6s19.06-1,25.86-7.25c10-9.19,9.6-27.32-.85-36-7.79-6.48-18.66-7.37-28.78-8-26.37-1.56-52.76-2.48-78.23,5.67-7,2.22-16.18,3.82-20.6,10.12C161.24,60,169.29,71.11,180.31,73.63Z"/></svg>