<svg id="Layer_2" data-name="Layer 2" xmlns="http://www.w3.org/2000/svg" viewBox="0 0 536.51 535.09"><defs><style>.cls-1{fill:#f25a29;}.cls-2{fill:#fac042;}.cls-3{fill:#f7cd48;}.cls-4{fill:#e9b13f;}.cls-5{fill:#d52f28;}.cls-6{fill:#f77e41;}.cls-7{fill:#231f20;}.cls-8{fill:#fff;}.cls-9{fill:#8c7d81;opacity:0.53;}.cls-10{fill:#e5e5d1;}.cls-11{fill:#365625;}.cls-12{fill:#63a345;}.cls-13{fill:#75ba50;}.cls-14{fill:#5b913f;}</style></defs><path class="cls-1" d="M105.93,444.37c-3.46.69-47.83,21.43-47.83,21.43l8.52,7.68,70.5-14Z"/><path class="cls-1" d="M6.22,395c-.82-2.46-1.36-6.86,1.88-7.53,6.47-1.33,11.76,12.63,18.1,10.77,4.3-1.26,3.5-6.66,3.58-11.15.1-5.24-.28-12.62,4.49-13.37,3-.49,8.13,6.28,9.74,9.29s6.84,6.81,10.13,5.87c4-1.16,2.87-15.05,7.06-15.16,6.31-.15,11.46,22.34,11.46,52.15,0,9.93,8.41,61.31-17.38,44.69-8.89-5.73-25.27-31.25-31-39.9C17,419.5,10.45,407.7,6.22,395Z"/><path class="cls-1" d="M431.5,441.82c3.47.63,48.19,20.62,48.19,20.62l-8.38,7.81-70.74-12.79Z"/><path class="cls-1" d="M530.35,390.74c.78-2.47,1.25-6.87-2-7.49-6.49-1.22-11.54,12.82-17.91,11.07-4.32-1.18-3.62-6.6-3.77-11.08-.19-5.24.06-12.63-4.72-13.29-3-.45-8,6.41-9.58,9.45s-6.73,6.93-10,6c-4-1.08-3.13-15-7.33-15-6.3-.05-11.07,22.53-10.56,52.33.17,9.93-7.36,61.45,18.14,44.39,8.79-5.88,24.74-31.67,30.29-40.42C520,415.43,526.34,403.53,530.35,390.74Z"/><path class="cls-2" d="M183.46,226.4s6.89,26.46,0,43.88-37.75,53.15-43.41,110.86c-4,41.2,29.1,93.44,129.15,93.44,82.28,0,132.08-38.57,135.31-79.11,5.28-66.39-42.94-100.23-53-126.2-11.48-29.57-8.76-55.78-8.76-55.78Z"/><path class="cls-3" d="M221.42,234c-5.48,11.41-25.75,65-26.94,110.07-1.25,47.42,39.72,74.44,77.84,71,47.72-4.31,75.48-29.1,70-76C336.12,286.4,309.8,234,309.8,234Z"/><path class="cls-4" d="M298.86,260.52c12.71,1.61,51,4.4,51,4.4s-5.22-12.53-6.85-31.71c-12.12-1.42-22.1.08-34.21,1.58a445.51,445.51,0,0,1-62.6,3.3q-15.69-.28-31.32-1.67c-6.75-.6-20.49-5.15-25.83-.15C211.6,253.15,285.31,258.8,298.86,260.52Z"/><path class="cls-2" d="M258.07,44.55C213.61,44,125.5,74.48,125.5,148.85c0,98.79,136.61,104.25,136.61,104.25C335.67,254.72,410.4,218.34,410,151.8,409.68,87,340.77,45.62,258.07,44.55Z"/><path class="cls-2" d="M243,50.5c6-5.35,10.91-12.37,11.7-20.34S251.14,13.41,243.49,11a30.62,30.62,0,0,1,23.17,20.42,29.5,29.5,0,0,1,13-13.36l-1.83,17.25A18.08,18.08,0,0,1,293,27.1c-6.2,9-5.14,22.34,2.4,30.28Z"/><path class="cls-2" d="M129.16,129.14c-12,10.3-24.61,21.33-29.75,36.33A21.55,21.55,0,0,1,112,161a86.89,86.89,0,0,0-1.81,20.09,41.4,41.4,0,0,1,39.38,10.34c.32.32.72.67,1.15.55s.36-1-.06-.83Z"/><path class="cls-2" d="M397.4,121.85l22.87,16.09-6.76,5.33a96,96,0,0,1,18.47,26A277.05,277.05,0,0,0,387.6,163Z"/><path class="cls-5" d="M182.53,178.5c.3,12.94,20.25,46.74,85.24,45.13,67.83-1.68,80.65-38.81,80.65-38.81C348.8,169.42,182.53,178.5,182.53,178.5Z"/><path class="cls-1" d="M173.62,174.13c-2.3,14.57,52.93,31.34,101.86,28.3,46.62-2.89,84.8-14.33,84.93-28.32s-21-15.94-43.58-24.45-26.42-24.89-52.41-22.18-22.59,16.17-46.87,21.74S176.66,154.84,173.62,174.13Z"/><path class="cls-6" d="M207.3,158.71a21.39,21.39,0,0,0-7.38,2.34c-2.21,1.35-4,3.77-3.79,6.36.29,4.14,4.92,6.37,8.91,7.51a102.36,102.36,0,0,0,14.73,3,21.89,21.89,0,0,0,8,0c5.34-1.28,9.15-5.86,12.53-10.19,2.54-3.25,5.21-7,4.76-11.1a4,4,0,0,0-.93-2.34c-.94-1-2.46-1.07-3.82-1.07C229.25,153.21,218.19,156.66,207.3,158.71Z"/><circle class="cls-7" cx="199.86" cy="109.73" r="10.44"/><path class="cls-8" d="M201.11,106.46a4.61,4.61,0,1,1-4.61-4.6A4.6,4.6,0,0,1,201.11,106.46Z"/><circle class="cls-7" cx="341.05" cy="118.71" r="10.44"/><circle class="cls-8" cx="337.69" cy="115.44" r="4.61"/><path class="cls-7" d="M196.78,93.08c3.24-.77,6.83.23,9.88-1.11a3,3,0,0,0,1.27-.93c.8-1.1.15-2.77-1-3.52-4.37-2.84-16.2.17-20.33,3-1.83,1.26-2.71,2.41-.89,4.13C188.8,97.59,193.63,93.82,196.78,93.08Z"/><path class="cls-7" d="M345.64,98.71c3.14,1.11,5.61,3.89,8.9,4.41a2.88,2.88,0,0,0,1.57-.09c1.27-.5,1.63-2.25,1.07-3.49-2.13-4.76-13.71-8.63-18.73-8.46-2.22.07-3.58.56-3,3C336.48,98.18,342.58,97.64,345.64,98.71Z"/><path class="cls-3" d="M207.41,66a1.28,1.28,0,0,0,0-2.56,1.28,1.28,0,0,0,0,2.56Z"/><path class="cls-3" d="M207.41,66A15,15,0,0,1,220,72.23a1.33,1.33,0,0,0,1.76.46,1.3,1.3,0,0,0,.46-1.76,17.64,17.64,0,0,0-14.85-7.49c-1.64.05-1.65,2.61,0,2.56Z"/><path class="cls-3" d="M226.5,80.15A15.27,15.27,0,0,1,232,92.78c-.1,1.65,2.47,1.64,2.56,0a17.66,17.66,0,0,0-6.28-14.44,1.32,1.32,0,0,0-1.81,0,1.28,1.28,0,0,0,0,1.81Z"/><path class="cls-3" d="M242.57,92.27a20.33,20.33,0,0,1,1.78,11.47,1.33,1.33,0,0,0,.9,1.58,1.29,1.29,0,0,0,1.58-.9A23.41,23.41,0,0,0,244.78,91a1.28,1.28,0,0,0-1.75-.46,1.3,1.3,0,0,0-.46,1.75Z"/><path class="cls-3" d="M255.89,106.77q.71,5.67,1.4,11.34a1.32,1.32,0,0,0,1.28,1.28,1.28,1.28,0,0,0,1.28-1.28q-.69-5.67-1.4-11.34a1.32,1.32,0,0,0-1.28-1.28,1.28,1.28,0,0,0-1.28,1.28Z"/><path class="cls-3" d="M276,117a20.56,20.56,0,0,1,4.31-11.67,1.29,1.29,0,0,0-.46-1.76,1.32,1.32,0,0,0-1.75.46,22.85,22.85,0,0,0-4.66,13c-.07,1.65,2.49,1.64,2.56,0Z"/><path class="cls-3" d="M289.73,117.25l6.27-15a1.28,1.28,0,0,0-.9-1.57,1.3,1.3,0,0,0-1.57.89l-6.27,14.95a1.28,1.28,0,0,0,.9,1.57,1.3,1.3,0,0,0,1.57-.89Z"/><path class="cls-3" d="M308.14,95.54a36.06,36.06,0,0,1,16.91-15,1.29,1.29,0,0,0,.46-1.75,1.32,1.32,0,0,0-1.76-.46,38.3,38.3,0,0,0-17.82,15.93,1.28,1.28,0,0,0,2.21,1.3Z"/><path class="cls-3" d="M330,74.17a43.24,43.24,0,0,1,11.43-6.44,1.31,1.31,0,0,0,.89-1.57,1.28,1.28,0,0,0-1.58-.9,47,47,0,0,0-12.55,7.1,1.28,1.28,0,0,0,0,1.81,1.31,1.31,0,0,0,1.81,0Z"/><path class="cls-3" d="M307.36,76.86A93.22,93.22,0,0,1,322.9,64.33c1.38-.88.1-3.1-1.29-2.21a95.68,95.68,0,0,0-16.06,12.93,1.28,1.28,0,0,0,1.81,1.81Z"/><path class="cls-3" d="M297.79,91.13A28.75,28.75,0,0,1,301.31,80c.81-1.44-1.41-2.73-2.21-1.29a31.91,31.91,0,0,0-3.87,12.41,1.28,1.28,0,0,0,1.28,1.28,1.31,1.31,0,0,0,1.28-1.28Z"/><path class="cls-3" d="M277.09,96.89A40.79,40.79,0,0,0,277.71,80a1.29,1.29,0,0,0-1.57-.9,1.31,1.31,0,0,0-.9,1.58,37.51,37.51,0,0,1-.63,15.5,1.29,1.29,0,0,0,2.48.68Z"/><path class="cls-3" d="M261.8,91.72a30.89,30.89,0,0,0-4.38-17.29,1.28,1.28,0,0,0-2.21,1.3,28.33,28.33,0,0,1,4,16c-.08,1.65,2.49,1.64,2.57,0Z"/><path class="cls-3" d="M246.75,77.4a33,33,0,0,0-9.17-13.73c-1.23-1.09-3.05.72-1.81,1.81a30.3,30.3,0,0,1,8.51,12.61,1.32,1.32,0,0,0,1.58.89,1.29,1.29,0,0,0,.89-1.58Z"/><path class="cls-3" d="M228.45,58.73a17.64,17.64,0,0,0-5.32-6.37,1.27,1.27,0,0,0-1.75.46,1.31,1.31,0,0,0,.46,1.75c.19.15-.11-.09,0,0l.19.15.34.28q.36.3.69.63A15.38,15.38,0,0,1,224.36,57l.13.16c.08.11.11.14,0,0,.1.12.19.26.29.39s.35.51.52.77a14.91,14.91,0,0,1,.92,1.66,1.29,1.29,0,0,0,1.76.46,1.32,1.32,0,0,0,.46-1.75Z"/><path class="cls-3" d="M254.24,63.62q-3.41-5.71-6.8-11.43a1.28,1.28,0,0,0-2.22,1.29L252,64.92a1.29,1.29,0,0,0,2.22-1.3Z"/><path class="cls-3" d="M272.13,69.31a14.31,14.31,0,0,1,1.65-13A1.28,1.28,0,0,0,271.57,55a16.69,16.69,0,0,0-1.91,15,1.31,1.31,0,0,0,1.58.89,1.29,1.29,0,0,0,.89-1.57Z"/><path class="cls-3" d="M287.13,68.06a29.93,29.93,0,0,1,10.94-11.34,1.28,1.28,0,0,0-1.3-2.21,32.61,32.61,0,0,0-11.86,12.26c-.79,1.44,1.42,2.74,2.22,1.29Z"/><path class="cls-3" d="M306,65.5a1.28,1.28,0,0,0,0-2.56,1.28,1.28,0,0,0,0,2.56Z"/><path class="cls-3" d="M306.75,64.89a37.31,37.31,0,0,1,12.05-6.32c1.57-.49.9-3-.68-2.47a40.39,40.39,0,0,0-13.18,7,1.28,1.28,0,0,0,1.81,1.81Z"/><circle class="cls-9" cx="194.5" cy="106.04" r="49.24"/><path class="cls-7" d="M194.5,162.86A56.82,56.82,0,1,1,251.32,106,56.88,56.88,0,0,1,194.5,162.86Zm0-100A43.15,43.15,0,1,0,237.65,106,43.19,43.19,0,0,0,194.5,62.9Z"/><path class="cls-8" d="M159.66,94.4c-.62,4.08.54,9.21,4.49,10.44,3.71,1.16,7.43-1.91,9.43-5.25s3.24-7.27,6.22-9.77c2.28-1.9,5.26-2.69,7.87-4.1s5.07-4,4.77-6.9c-.81-7.74-12.56-5.55-17.21-3.52C167.39,78.7,161,85.82,159.66,94.4Z"/><circle class="cls-9" cx="342.99" cy="109.43" r="49.24"/><path class="cls-7" d="M343,166.25a56.82,56.82,0,1,1,56.81-56.82A56.88,56.88,0,0,1,343,166.25Zm0-100a43.15,43.15,0,1,0,43.14,43.14A43.19,43.19,0,0,0,343,66.29Z"/><path class="cls-8" d="M308.15,97.79c-.62,4.09.53,9.21,4.48,10.45,3.71,1.15,7.44-1.92,9.43-5.26s3.25-7.27,6.23-9.77c2.27-1.9,5.26-2.69,7.87-4.1s5.07-4,4.76-6.9c-.81-7.74-12.55-5.55-17.21-3.52C315.87,82.09,309.44,89.21,308.15,97.79Z"/><path class="cls-7" d="M294.17,100.68c-1.26-3.58-4.68-5.94-8.11-7.55a40.7,40.7,0,0,0-31.26-1.26c-3.58,1.35-7.19,3.43-8.85,6.88l-.24,5.13a26.69,26.69,0,0,0,.74,8.06c.34,1.33,1,2.82,2.27,3.22s2.87-.7,4-1.67c8.64-7.13,23.84-5.88,33.94-1,2.54,1.22,3.26,0,5.58-1.63A6,6,0,0,0,294.4,107,11.78,11.78,0,0,0,294.17,100.68Z"/><path class="cls-10" d="M85.23,295.43,108.48,275s41.66-7,83.32,7.35,72.9,42.35,72.9,42.35,42.15-28.59,70.63-41.3c41.32-18.43,90-12.25,90-12.25l20,20L291.74,356.52,227.16,359Z"/><path class="cls-11" d="M239.41,334.3c13-4.56,27.25-3.55,40.78-1.07,5.15.94,10.68,2.34,13.92,6.45a8.92,8.92,0,0,1,1.77,8.05c-1.36,4.2-6.13,6.13-10.41,7.18a84,84,0,0,1-39.56.1c-3.78-.9-7.59-2.13-10.64-4.55C227.42,344.23,231.2,337.2,239.41,334.3Z"/><polygon class="cls-12" points="72.77 291.87 237.65 336.57 251.32 513.72 97.28 479.71 72.77 291.87"/><polygon class="cls-12" points="455.55 288.02 291.74 336.48 282.13 513.9 435.35 476.38 455.55 288.02"/><path class="cls-12" d="M265.48,349.17c-21.2,0-27.83-12.42-27.83-12.42v1.57L251.32,513.9s4,10.83,17.4,10.13,13.41-10.13,13.41-10.13l9.61-177.42S286.67,349.17,265.48,349.17Z"/><path class="cls-13" d="M260.4,517.83,246.94,344.89c-6.68-3.59-9.13-8.18-9.13-8.18v1.57l13.66,175.58a16.87,16.87,0,0,0,13.36,10A16.58,16.58,0,0,1,260.4,517.83Z"/><path class="cls-3" d="M240.88,379.89s10.44,8.49,27.84,7.28a32.09,32.09,0,0,0,20.78-9.29L289,386.3s-3.58,7.3-20.32,8.35a38.34,38.34,0,0,1-27.21-8.9Z"/><path class="cls-3" d="M242.93,405.18s11.89,10.79,22.4,10.15c19.57-1.19,22.39-11.55,22.39-11.55l-.13,9.32s-3.61,10.11-20.35,11.16-23.72-10.47-23.72-10.47Z"/><path class="cls-3" d="M116.28,342.08s-6.4,27.47,6.75,28.43c9.2.67,10-30.1,10-30.1L127,342s.66,21-4.63,20.46c-3.54-.33-1-20.64-1-20.64Z"/><path class="cls-3" d="M117.28,384.15s-6.57,21,3.58,22.47c7.11,1.06,9.56-22.79,9.56-22.79l-4.84.86s-.71,16.32-4.79,15.62c-2.73-.46.41-16.08.41-16.08Z"/><path class="cls-3" d="M154.9,356.1s3.57-8.52-4-10-11.36,4.2-13.67,11.14-2.42,13.78,3.15,15.67c12,4.07,12.72-9.36,12.72-9.36l-6.45-1.26-1.73,2.64,2.72.93s-1.05,4.52-5.26,2.82c-3.19-1.29-3.79-4.81-1.58-10.07s5-9.26,7.89-8.51,1.89,3.95,1.89,3.95Z"/><path class="cls-3" d="M225.33,418.13s5.3-8.28-1.82-10.08c-6.68-1.7-9.66,3.2-11.77,8.14s-1.47,10.32,2.59,12c8.73,3.65,10-6.12,10-6.12l-4.76-1.29-1.43,1.84,2,.83s-.81,2.79-3.86,1.31c-2.31-1.13-1.89-3.15.05-6.87s2.81-5.37,4.92-4.66.68,3.37.68,3.37Z"/><path class="cls-3" d="M163.51,349.4S159.76,377,160,377.22,175,378.81,175,378.81v-5.6L167.47,372l1.64-21.47Z"/><polygon class="cls-3" points="178.57 351.56 182.54 365.8 180.56 380.74 187.91 382.83 190.71 367.2 199.58 356 192.34 354.6 187.44 362.28 185.58 351.56 178.57 351.56"/><path class="cls-3" d="M147.74,397.22s.63-8.38-6.11-9.7c-4.33-.84-8.79,1.91-10.27,9.18-1.2,5.86-.64,11.38,4.54,12.73,8.72,2.29,10.64-6.1,10.64-6.1l-4.72-.94a3.55,3.55,0,0,1-4.7,2.7c-2.15-.61-2.29-3.22-.86-6.68s2.46-4.43,4-4.5,1.46,3.41,1.46,3.41Z"/><path class="cls-3" d="M153.81,385.82s-6.53,29.44-5.6,29.3,4.68,1.25,4.68,1.25l1-7.7s2.49,7.46,3.19,7.69a24.85,24.85,0,0,0,4.2,0L157,406.09l7.22-5L161.45,399l-5.29,2.13,1.89-15.34Z"/><path class="cls-3" d="M172.41,392c-.31,1.08-7.24,26.3-6,26.39s9.74,1.91,9.74,1.91l1.72-6.19-5.6-.89,5.94-20.27Z"/><path class="cls-3" d="M183.55,402.53c-.28.7-3.69,18-2.53,18.08l6.83.52,1.31-17.51Z"/><path class="cls-3" d="M191.64,421.41c0-1.63,1.37-18.17,1.37-18.17l3.87.29s5,14.68,4.83,13.5,2.62-12.94,2.62-12.94l3.67,1-2.82,18.8-6.14-.47s-2.81-11.23-2.85-10.75-.45,9.1-.45,9.1Z"/><path class="cls-3" d="M99.27,378l-1.66,22.11s13.23,4.5,15.38-5.4S99.27,378,99.27,378Zm8.9,15.54c-.82,3.92-6.48,2.08-6.69,1.74s.76-10,.76-10S109.45,387.38,108.17,393.5Z"/><path class="cls-4" d="M64.83,359.2c-2.86-7.94-3.12-16.35-3.44-24.78-.54-13.86,8.1-19.07,10.52-19.54,2.67-.52,5,1.65,6.89,3.63,3.49,3.75,7.1,7.68,8.53,12.59s-.06,11.09-4.67,13.33A65.6,65.6,0,0,1,93.6,375.64c.87,10.68-6,17.41-14.4,8.65C72.46,377.29,68.09,368.25,64.83,359.2Z"/><path class="cls-4" d="M461.06,350.44c2.11-8.17,1.59-16.56,1.12-25-.75-13.85-9.84-18.23-12.29-18.48-2.71-.27-4.86,2.11-6.52,4.27-3.13,4.05-6.36,8.3-7.33,13.32s1.1,11,5.89,12.83a65.77,65.77,0,0,0-8,32.1c.13,10.72,7.56,16.78,15.14,7.27C455.14,369.17,458.65,359.76,461.06,350.44Z"/><polygon class="cls-14" points="291.74 336.48 282.13 513.9 300.2 509.47 299.85 334.08 291.74 336.48"/><path class="cls-8" d="M113.19,280.24s17.43-2.06,46.8,2.76c52.61,8.64,97.79,48.84,89.22,48.12,0,0-41.21-29.1-87.17-39.25-26.38-5.83-60.59-4.09-60.59-4.09Z"/><path class="cls-8" d="M270.19,331.74c.73-1.83,35.12-30.79,60.42-39.87,48.14-17.28,84.89-17.62,85.95-17.27s6.3,5.2,6.3,5.2-64.94,9.48-88.22,16.51C304.26,305.47,270.19,331.74,270.19,331.74Z"/></svg>