<svg id="Layer_2" data-name="Layer 2" xmlns="http://www.w3.org/2000/svg" viewBox="0 0 600 600"><defs><style>.cls-1{fill:#f25a29;}.cls-2{fill:#fac042;}.cls-3{fill:#e9b13f;}.cls-4{fill:#f7cd48;}.cls-5{fill:#d52f28;}.cls-6{fill:#f77e41;}.cls-7{fill:#231f20;}.cls-8{fill:#9dd5e8;}.cls-9{fill:#fff;opacity:0.23;}</style></defs><path class="cls-1" d="M146.72,457.65c-3.18,1-42.84,24.28-42.84,24.28l8.62,6.49,64.66-19.23Z"/><path class="cls-1" d="M49.29,419.73c-1-2.25-1.86-6.33,1.11-7.24,5.93-1.81,12.07,10.87,17.83,8.58,3.92-1.56,2.7-6.58,2.39-10.8-.36-4.95-1.36-11.86,3-13,2.72-.73,8.13,5.21,9.9,7.9s7,5.82,10,4.66c3.66-1.44,1.38-14.42,5.29-14.88,5.87-.68,12.63,20,15.21,48.1.86,9.35,13.16,57-12.37,43.56-8.8-4.63-26.31-27.24-32.39-34.89C61.44,441.88,54.35,431.33,49.29,419.73Z"/><path class="cls-2" d="M217,463.49l-13.74-68.36a241.7,241.7,0,0,0-45.8,31.1c-5,4.27-9.79,8.81-13.24,14.37s-5.72,12.39-4.09,18.72c7,27,30,22,33.49,20.94A354,354,0,0,0,217,463.49Z"/><path class="cls-3" d="M228.45,459.78l-9.37-6c-11.42,4.94-26.8,10.92-38.68,14.63-3.53,1.1-26.54,6-33.49-20.94a20.53,20.53,0,0,1,.68-11.47,44,44,0,0,0-3.37,4.65c-3.44,5.57-5.72,12.39-4.09,18.72,7,27,30,22,33.49,20.94C188.43,475.63,214.37,466.31,228.45,459.78Z"/><path class="cls-1" d="M551.07,403.14c.76-2.32,1.24-6.44-1.81-7.05-6.08-1.21-11,11.92-16.91,10.22-4-1.16-3.33-6.23-3.43-10.44-.13-4.91.18-11.84-4.3-12.51-2.78-.45-7.59,5.94-9.08,8.77s-6.37,6.44-9.46,5.58c-3.79-1.06-2.79-14.1-6.73-14.18-5.91-.1-10.6,21-10.41,49,.07,9.31-7.49,57.57,16.6,41.81,8.3-5.43,23.51-29.47,28.8-37.63C541.16,426.2,547.18,415.09,551.07,403.14Z"/><path class="cls-1" d="M458.09,450.81c3.26.59,45.22,19.33,45.22,19.33l-7.87,7.34-66.36-12Z"/><path class="cls-2" d="M388.51,464.48l7.31-69.35a241.8,241.8,0,0,1,48.5,26.69c5.33,3.79,10.58,7.86,14.52,13.08s6.85,11.79,5.82,18.25c-4.4,27.5-27.77,24.74-31.39,24A356.28,356.28,0,0,1,388.51,464.48Z"/><path class="cls-3" d="M376.77,461.85l8.77-6.9c11.83,3.85,27.7,8.37,39.87,11,3.62.77,27,3.52,31.39-24a20.6,20.6,0,0,0-1.74-11.36,43.13,43.13,0,0,1,3.78,4.32c3.94,5.22,6.85,11.79,5.82,18.25-4.4,27.5-27.77,24.74-31.39,24C418.1,473.89,391.39,467,376.77,461.85Z"/><path class="cls-2" d="M220.14,248.7s6.46,24.83,0,41.17-35.42,49.86-40.72,104c-3.79,38.64,27.3,87.66,121.15,87.66,77.2,0,123.92-36.19,127-74.22,5-62.28-40.29-94-49.75-118.4-10.77-27.73-8.22-52.32-8.22-52.32Z"/><path class="cls-4" d="M255.75,255.81c-5.14,10.71-24.16,61-25.27,103.26-1.17,44.49,37.26,69.84,73,66.61,44.77-4.05,70.82-27.3,65.65-71.29-5.8-49.39-30.48-98.58-30.48-98.58Z"/><path class="cls-3" d="M330.12,280.71c11.92,1.51,46.28,4.49,46.28,4.49a186.25,186.25,0,0,1-4.83-30.11c-11.37-1.33-20.73.08-32.1,1.49a417.57,417.57,0,0,1-58.72,3.09q-14.72-.27-29.38-1.57c-6.34-.56-19.22-4.82-24.24-.13C248.26,273.8,317.41,279.11,330.12,280.71Z"/><path class="cls-2" d="M290.13,78.1c-41.7-.54-124.37,28.08-124.37,97.85,0,92.68,128.17,97.8,128.17,97.8,69,1.52,139.12-32.6,138.77-95C432.37,117.92,367.72,79.1,290.13,78.1Z"/><path class="cls-2" d="M276,83.69c5.59-5,10.23-11.62,11-19.09s-3.37-15.71-10.54-17.95a28.71,28.71,0,0,1,21.73,19.16,27.69,27.69,0,0,1,12.24-12.53l-1.71,16.18a17,17,0,0,1,14.14-7.73,23.36,23.36,0,0,0,2.26,28.41Z"/><path class="cls-2" d="M169.2,157.46c-11.31,9.66-23.09,20-27.92,34.08a20.27,20.27,0,0,1,11.83-4.16,81.19,81.19,0,0,0-1.7,18.85,38.82,38.82,0,0,1,37,9.7c.29.3.67.62,1.07.51s.34-.91-.06-.78Z"/><path class="cls-2" d="M420.85,150.62l21.45,15.1-6.34,5a89.88,89.88,0,0,1,17.33,24.41,258.91,258.91,0,0,0-41.63-5.9Z"/><path class="cls-5" d="M219.26,203.77c.29,12.14,19,43.85,80,42.34,63.64-1.58,75.67-36.41,75.67-36.41C375.25,195.25,219.26,203.77,219.26,203.77Z"/><path class="cls-1" d="M210.84,207c1,13.81,44.17,17.47,96,16.77,43.82-.6,80.91-4.52,82.16-17.59,1.4-14.52-22.54-20.72-43.71-28.7s-24.79-23.35-49.17-20.81-21.2,15.17-44,20.39S209.58,188.75,210.84,207Z"/><path class="cls-6" d="M242.5,185.2a20.24,20.24,0,0,0-6.92,2.2c-2.08,1.27-3.73,3.53-3.56,6,.27,3.89,4.62,6,8.36,7a97.07,97.07,0,0,0,13.82,2.84,20.77,20.77,0,0,0,7.54,0c5-1.21,8.58-5.5,11.75-9.56,2.39-3.06,4.89-6.56,4.47-10.41a3.71,3.71,0,0,0-.88-2.2c-.88-.92-2.3-1-3.58-1C263.1,180,252.72,183.28,242.5,185.2Z"/><path class="cls-7" d="M233.29,111.15c2.59-1.75,6.06-2.07,8.29-4.26a2.82,2.82,0,0,0,.81-1.23,2.47,2.47,0,0,0-2-2.76c-4.78-1-14.16,5.54-16.83,9.42-1.18,1.71-1.57,3,.59,3.91C227.78,117.76,230.77,112.86,233.29,111.15Z"/><path class="cls-7" d="M371.75,116.29c2.43,2,3.73,5.2,6.47,6.7a2.89,2.89,0,0,0,1.42.42,2.47,2.47,0,0,0,2.05-2.75c-.38-4.88-9.4-12-13.88-13.39-2-.63-3.34-.63-3.58,1.7C363.83,112.93,369.39,114.37,371.75,116.29Z"/><path class="cls-4" d="M242.61,98.26a1.2,1.2,0,0,0,0-2.4,1.2,1.2,0,0,0,0,2.4Z"/><path class="cls-4" d="M242.61,98.23a14,14,0,0,1,11.85,5.84,1.21,1.21,0,0,0,2.08-1.22,16.55,16.55,0,0,0-13.93-7c-1.54.05-1.55,2.46,0,2.41Z"/><path class="cls-4" d="M260.51,111.5a14.27,14.27,0,0,1,5.19,11.85c-.09,1.55,2.32,1.54,2.41,0a16.57,16.57,0,0,0-5.89-13.55,1.25,1.25,0,0,0-1.71,0,1.22,1.22,0,0,0,0,1.7Z"/><path class="cls-4" d="M275.59,122.87a19.09,19.09,0,0,1,1.68,10.76,1.23,1.23,0,0,0,.84,1.48,1.21,1.21,0,0,0,1.48-.84,22,22,0,0,0-1.92-12.61,1.2,1.2,0,0,0-2.08,1.21Z"/><path class="cls-4" d="M288.09,136.47c.44,3.55.87,7.1,1.31,10.65a1.24,1.24,0,0,0,1.2,1.2,1.22,1.22,0,0,0,1.21-1.2l-1.32-10.65a1.24,1.24,0,0,0-1.2-1.2,1.2,1.2,0,0,0-1.2,1.2Z"/><path class="cls-4" d="M306.94,146.1a19.29,19.29,0,0,1,4-10.95,1.21,1.21,0,0,0-.43-1.65,1.24,1.24,0,0,0-1.65.44,21.49,21.49,0,0,0-4.37,12.16c-.06,1.54,2.34,1.54,2.41,0Z"/><path class="cls-4" d="M319.84,146.3l5.88-14a1.21,1.21,0,0,0-.84-1.48,1.23,1.23,0,0,0-1.48.84l-5.88,14a1.2,1.2,0,0,0,.84,1.47,1.22,1.22,0,0,0,1.48-.84Z"/><path class="cls-4" d="M337.11,125.94A33.8,33.8,0,0,1,353,111.85a1.21,1.21,0,1,0-1.22-2.08,36,36,0,0,0-16.72,15,1.21,1.21,0,0,0,2.08,1.22Z"/><path class="cls-4" d="M357.64,105.89a40.42,40.42,0,0,1,10.71-6,1.23,1.23,0,0,0,.84-1.48,1.21,1.21,0,0,0-1.48-.84,44.24,44.24,0,0,0-11.78,6.66,1.21,1.21,0,0,0,0,1.7,1.23,1.23,0,0,0,1.71,0Z"/><path class="cls-4" d="M336.38,108.42A85.94,85.94,0,0,1,351,96.66c1.29-.83.09-2.91-1.22-2.07a89.21,89.21,0,0,0-15.07,12.13,1.21,1.21,0,0,0,1.71,1.7Z"/><path class="cls-4" d="M327.4,121.8a26.89,26.89,0,0,1,3.3-10.43c.76-1.35-1.32-2.57-2.07-1.21A29.89,29.89,0,0,0,325,121.8a1.21,1.21,0,0,0,1.2,1.2,1.23,1.23,0,0,0,1.21-1.2Z"/><path class="cls-4" d="M308,127.21a38.19,38.19,0,0,0,.59-15.82,1.21,1.21,0,0,0-1.48-.84,1.23,1.23,0,0,0-.84,1.48,35.13,35.13,0,0,1-.59,14.54c-.37,1.5,2,2.14,2.32.64Z"/><path class="cls-4" d="M293.63,122.35a28.93,28.93,0,0,0-4.1-16.21,1.2,1.2,0,0,0-2.08,1.21,26.6,26.6,0,0,1,3.77,15c-.07,1.55,2.34,1.55,2.41,0Z"/><path class="cls-4" d="M279.52,108.92A31,31,0,0,0,270.91,96c-1.15-1-2.86.67-1.7,1.7a28.48,28.48,0,0,1,8,11.82,1.2,1.2,0,0,0,2.32-.64Z"/><path class="cls-4" d="M262.34,91.4a16.54,16.54,0,0,0-5-6,1.21,1.21,0,0,0-1.65.43,1.23,1.23,0,0,0,.43,1.64c.19.14-.1-.08,0,0l.17.14.32.27c.22.19.44.38.65.58a15,15,0,0,1,1.21,1.31l.12.15c.08.1.1.13,0,0l.27.36.49.72a16,16,0,0,1,.87,1.57,1.21,1.21,0,0,0,1.64.43,1.23,1.23,0,0,0,.43-1.65Z"/><path class="cls-4" d="M286.54,96q-3.19-5.37-6.38-10.73a1.2,1.2,0,0,0-2.08,1.21q3.19,5.37,6.38,10.73A1.2,1.2,0,0,0,286.54,96Z"/><path class="cls-4" d="M303.33,101.33a13.38,13.38,0,0,1,1.54-12.22,1.2,1.2,0,1,0-2.07-1.22A15.65,15.65,0,0,0,301,102a1.2,1.2,0,0,0,2.32-.64Z"/><path class="cls-4" d="M317.39,100.16a28.2,28.2,0,0,1,10.27-10.64,1.21,1.21,0,0,0-1.22-2.08,30.61,30.61,0,0,0-11.12,11.5c-.75,1.36,1.33,2.58,2.07,1.22Z"/><path class="cls-4" d="M335.13,97.76a1.21,1.21,0,0,0,0-2.41,1.21,1.21,0,0,0,0,2.41Z"/><path class="cls-4" d="M335.81,97.19a34.79,34.79,0,0,1,11.3-5.94,1.2,1.2,0,0,0-.64-2.32,37.92,37.92,0,0,0-12.36,6.56,1.2,1.2,0,0,0,0,1.7,1.24,1.24,0,0,0,1.7,0Z"/><path class="cls-7" d="M210.84,155.62s3.55,3.39,14.57,0a42.73,42.73,0,0,0,17-9.63s0,11.47-10.44,16.37C219.17,168.38,210.84,155.62,210.84,155.62Z"/><path class="cls-7" d="M385.88,155s-3.41,3.52-14.55.55a42.64,42.64,0,0,1-17.39-9s.43,11.47,11.05,16C378,168.1,385.88,155,385.88,155Z"/><path class="cls-3" d="M187.85,377.07c5.19,11,13.15,20.52,21.85,29.05,3.71,3.64,7.68,7.19,12.5,9.14s10.69,2,14.91-1,5.89-9.62,2.65-13.68c3.89,4.47,12,.81,13.75-4.86s-.74-11.69-3.14-17.11c.82,3.42,5.64,4.68,8.59,2.76s4-5.89,3.48-9.37-2.37-6.61-4.16-9.64l-37-62.34c-1.87-3.14-4.3-6.66-7.95-6.9-2.11-.14-4.11.89-5.88,2.06C183.77,310.82,176.39,352.77,187.85,377.07Z"/><path class="cls-3" d="M411.62,376.84c-5.1,11.06-13,20.64-21.59,29.24-3.68,3.68-7.63,7.27-12.43,9.26s-10.67,2.13-14.92-.87-6-9.57-2.76-13.66c-3.85,4.51-12,.92-13.8-4.74s.64-11.69,3-17.14c-.79,3.44-5.6,4.74-8.57,2.84s-4.07-5.85-3.56-9.34,2.31-6.63,4.08-9.67l36.4-62.66c1.84-3.17,4.24-6.7,7.89-7,2.11-.16,4.12.86,5.9,2C415.11,310.56,422.86,352.44,411.62,376.84Z"/><path class="cls-8" d="M197,180.16c-3.27,2.48-6.46,5.36-8,9.17s-.9,8.75,2.42,11.17c3.64,2.64,9,1.24,12.25-1.92s4.74-7.59,6.17-11.85c.88-2.61,6.81-14.76,2.93-15.93C209.6,169.84,199.48,178.28,197,180.16Z"/><path class="cls-8" d="M401.88,198a45.86,45.86,0,0,0,3,11c1.6,3.47,4.22,6.63,7.75,8.08s8.05.81,10.52-2.1,2.37-7.68.81-11.36a19,19,0,0,0-6.47-8c-2.12-1.49-4.52-2.53-6.78-3.81-1.9-1.09-7.9-7.06-10-5.67C398.73,187.41,401.53,196.05,401.88,198Z"/><path class="cls-8" d="M156.87,236.54a20.06,20.06,0,0,0,.58,9.74,10.6,10.6,0,0,0,6.64,6.78c4.49,1.32,9.47-1.48,11.74-5.57s2.29-9.1,1.31-13.67-2.87-8.9-4.24-13.38c-.47-1.55-1-9.45-2.28-10-2.58-1.07-4.57,4.1-5.69,5.93C161.14,222.6,158,229.29,156.87,236.54Z"/><path class="cls-8" d="M436.9,233.7a28,28,0,0,0,2.87,8.87c2.2,3.83,6.91,6.79,11,5.09,2.62-1.09,4.23-3.8,5-6.53a17.64,17.64,0,0,0-2.91-15.07c-2-2.7-14.43-17.11-18.12-15.73C430.7,211.82,436.23,230.17,436.9,233.7Z"/><path class="cls-8" d="M424.32,264.73c-.46,2.86-.91,5.72-1.37,8.59-.54,3.38-1.06,6.92,0,10.16s4.42,6,7.76,5.26a6.74,6.74,0,0,0,4.42-3.84,13.72,13.72,0,0,0,1.07-5.92,29.94,29.94,0,0,0-3.6-14.13c-1.61-3-4.4-8.51-7.31-9.66C425,258.34,424.82,261.55,424.32,264.73Z"/><path class="cls-8" d="M180.32,268.55A29.24,29.24,0,0,0,178.1,284a13.33,13.33,0,0,0,1.78,5.56,6.46,6.46,0,0,0,4.74,3.13,6.37,6.37,0,0,0,5.6-3,11.24,11.24,0,0,0,1.63-6.35c0-4-1.36-7.83-2.66-11.6s-2.36-7.77-4.09-11.33C182.68,261.57,181.43,266.05,180.32,268.55Z"/><path class="cls-8" d="M433.89,524.5c-3.56-4-10.66-5.2-16.75-7s-12.49-5.6-11.23-10.23c.4-1.48,1.58-2.94,1-4.4-.61-1.68-3.2-2.53-5.51-3.05-11.86-2.69-24.47-3-36.9-3.29-25.66-.6-51.41-.8-77.05-1.8a258,258,0,0,0-27.95-.05c-11.53.78-45.22-.36-43.12,12.49.86,5.31-8.8,8.35-15.9,10s-15.17,3.14-18.95,7.74c-4.84,5.88.61,13.89,8.91,17.24s18.36,3.33,27.89,3.21l71.5-.86c13.22-.16,26.67-.3,39.41,2.26,7.83,1.57,15.25,4.13,23.17,5.45,11.3,1.89,23.14,1.15,34.57-.25,11.84-1.45,23.67-3.64,34.11-7.9,4.9-2,9.57-4.54,12.38-8S436.94,527.89,433.89,524.5Z"/><path class="cls-9" d="M243.31,506.1c-2.55,2.06-4.59,4.7-7.16,6.72-7.53,5.92-19.19,6.29-24.55,14.24a4.26,4.26,0,0,0-.89,2.43c.09,2.43,3.26,3.26,5.68,3.25a59.4,59.4,0,0,0,23.43-5c7.54-3.31,14.44-8.21,22.39-10.33,5.19-1.38,10.6-1.52,16-1.72q18.34-.71,36.61-2.58c4.62-.47,9.83-1.34,12.44-5.19a3.49,3.49,0,0,0,.72-2.77c-.48-1.82-2.83-2.22-4.71-2.28L278,501.59C266.36,501.26,253.25,498.1,243.31,506.1Z"/></svg>