<svg t="1649753403228" class="icon" viewBox="0 0 1024 1024" version="1.1" xmlns="http://www.w3.org/2000/svg" p-id="8452" width="200" height="200"><path d="M512 512m-512 0a512 512 0 1 0 1024 0 512 512 0 1 0-1024 0Z" fill="#FBD971" p-id="8453"></path><path d="M292.571429 365.714286m-146.285715 0a146.285714 146.285714 0 1 0 292.571429 0 146.285714 146.285714 0 1 0-292.571429 0Z" fill="#FFFFFF" p-id="8454"></path><path d="M731.428571 365.714286m-146.285714 0a146.285714 146.285714 0 1 0 292.571429 0 146.285714 146.285714 0 1 0-292.571429 0Z" fill="#FFFFFF" p-id="8455"></path><path d="M316.952381 853.333333a24.380952 24.380952 0 0 1-22.503619-33.792c73.142857-175.445333 288.743619-259.584 470.747428-183.783619a24.380952 24.380952 0 1 1-18.773333 45.007238c-157.647238-65.657905-343.990857 6.460952-406.966857 157.549715A24.33219 24.33219 0 0 1 316.952381 853.333333z" fill="#F0C419" p-id="8456"></path><path d="M292.571429 365.714286m-73.142858 0a73.142857 73.142857 0 1 0 146.285715 0 73.142857 73.142857 0 1 0-146.285715 0Z" fill="#AF8066" p-id="8457"></path><path d="M731.428571 365.714286m-73.142857 0a73.142857 73.142857 0 1 0 146.285715 0 73.142857 73.142857 0 1 0-146.285715 0Z" fill="#AF8066" p-id="8458"></path></svg>