<svg t="1649579515472" class="icon" viewBox="0 0 1024 1024" version="1.1" xmlns="http://www.w3.org/2000/svg" p-id="6580" width="200" height="200"><path d="M685.131571 11.234922c12.600178 10.694508 18.772275 27.191356 16.212419 43.574432-22.754272 148.955156-10.950494 249.443712 5.00594 310.880247 7.992438 30.803596 17.065704 52.135727 23.664443 65.07722 2.758956 5.489468 5.859225 10.808279 9.272366 15.899548 10.466965 13.368135 13.083707 31.287125 6.826282 47.101344a47.215115 47.215115 0 1 1-81.147424 11.860664l36.975692-29.751211c-36.918807 29.751211-36.975693 29.694326-37.032578 29.665883l-0.142214-0.142215-0.227543-0.284428-0.511971-0.767957a93.605388 93.605388 0 0 1-5.745454-8.248424 245.603928 245.603928 0 0 1-12.51485-21.986315c-13.368135-26.906927-23.778215-55.179111-31.088024-84.361465-15.899548-61.436536-26.793156-148.471628-16.895048-265.513917-77.478298 43.688203-115.989904 102.963083-135.729235 154.586838a323.679526 323.679526 0 0 0-19.909988 87.376407 272.141099 272.141099 0 0 0-0.767957 34.074523c1.422142 15.359134-4.664626 30.433839-16.326191 40.474162-11.661565 10.040323-27.447341 13.737892-42.322946 9.954994l11.490907-46.191173-11.547793 46.134287h-0.056886l-0.142214-0.028443-0.284428-0.113771-0.711071-0.170657a82.541123 82.541123 0 0 1-7.053825-2.246984 156.520952 156.520952 0 0 1-15.842662-6.655625 200.180712 200.180712 0 0 1-46.105845-31.116468 241.565045 241.565045 0 0 1-58.023394-80.066596c-36.805036 49.689643-55.804853 103.13374-65.361648 149.381799-5.461025 26.451842-8.475966 53.330326-8.987938 80.351024-0.170657 9.499909 0.056886 18.999818 0.711071 28.499727l0.085329 1.137713v0.142215-0.085329c0.1991 1.70657 0.284428 3.441584 0.284428 5.176597 0 183.968293 148.386299 333.122549 331.387536 333.122549 183.029679 0 331.387536-149.154256 331.387535-333.122549 0-39.165791-12.230421-66.613133-27.788655-101.654712-3.157155-7.082267-6.428082-14.505849-9.784337-22.356073-9.528352-22.32763-19.170475-48.495043-22.12853-78.871997-2.986498-31.116468 1.279928-63.996391 15.785777-100.289456a47.243558 47.243558 0 0 1 61.237435-25.854542 47.670201 47.670201 0 0 1 26.650942 61.152107c-9.21548 23.180915-10.865165 40.872362-9.471466 55.833296 1.564356 15.700448 6.684068 31.201796 14.932491 50.514485 2.30387 5.40414 4.920611 11.149594 7.679567 17.236362C917.02605 485.974374 938.642609 533.587689 938.642609 594.853568c0.426643 236.559105-189.998175 428.66205-425.334238 429.088693-235.336063 0.426643-426.443509-190.993675-426.841709-427.55278-0.910171-12.657064-1.251485-25.342571-1.052385-38.028077 0.369757-24.659943 2.844284-58.933566 10.978936-98.127801 16.212419-78.30314 55.634196-178.222839 148.670728-258.403206a47.15823 47.15823 0 0 1 46.95913-8.589738c16.041762 5.859225 27.73177 19.966874 30.519168 36.890364 6.456525 38.65382 18.573175 65.532305 31.287125 84.276137 4.124212-21.218359 10.381637-44.939688 19.909988-69.770288C407.785432 155.582338 482.703874 55.008454 639.623026 2.417641a47.15823 47.15823 0 0 1 45.423216 8.817281h0.056886z" p-id="6581"></path></svg>