<svg xmlns="http://www.w3.org/2000/svg" xmlns:xlink="http://www.w3.org/1999/xlink" width="24" height="24" viewBox="0 0 24 24" fill="none"><g opacity="1" transform="translate(0 0)  rotate(0 12 12)"><path  id="Ellipse 41" style="stroke:#757575; stroke-width:2; stroke-opacity:1; stroke-dasharray:0 0" transform="translate(10 10)  rotate(0 2 2)" d="M2 0C0.9 0 0 0.9 0 2C0 3.1 0.9 4 2 4C3.1 4 4 3.1 4 2C4 0.9 3.1 0 2 0Z " /><path  id="Vector" style="stroke:#757575; stroke-width:2; stroke-opacity:1; stroke-dasharray:0 0" transform="translate(2.999994738789834 3.3984969635643445)  rotate(-30.000000445292045 9 8.60148525238037)" d="M11.66 0L9 4.6L6.34 0C5.04 0.4 3.86 1.1 2.88 2L5.54 6.6L0.22 6.6C0.08 7.24 0 7.91 0 8.6C0 9.29 0.08 9.96 0.22 10.6L5.54 10.6L2.88 15.2C3.86 16.11 5.04 16.8 6.34 17.2L9 12.6L11.66 17.2C12.96 16.8 14.14 16.11 15.12 15.2L12.46 10.6L17.78 10.6C17.92 9.96 18 9.29 18 8.6C18 7.91 17.92 7.24 17.78 6.6L12.46 6.6L15.12 2C14.14 1.1 12.96 0.4 11.66 0Z " /></g></svg>