<svg xmlns="http://www.w3.org/2000/svg" xmlns:xlink="http://www.w3.org/1999/xlink" width="24" height="24" viewBox="0 0 24 24" fill="none"><g opacity="1" transform="translate(0 0)  rotate(0 12 12)"><path  id="Ellipse 24" style="stroke:#757575; stroke-width:2; stroke-opacity:1; stroke-dasharray:0 0" transform="translate(14 4)  rotate(0 3 3)" d="M3 0C1.34 0 0 1.34 0 3C0 4.66 1.34 6 3 6C4.66 6 6 4.66 6 3C6 1.34 4.66 0 3 0Z " /><path  id="Ellipse 25" style="stroke:#757575; stroke-width:2; stroke-opacity:1; stroke-dasharray:0 0" transform="translate(4 14)  rotate(0 3 3)" d="M3 0C1.34 0 0 1.34 0 3C0 4.66 1.34 6 3 6C4.66 6 6 4.66 6 3C6 1.34 4.66 0 3 0Z " /><path  id="Rectangle 13" style="stroke:#757575; stroke-width:2; stroke-opacity:1; stroke-dasharray:0 0" transform="translate(14 14)  rotate(0 3 3)" d="M0 6L6 6L6 0L0 0L0 6Z " /><path  id="Rectangle 14" style="stroke:#757575; stroke-width:2; stroke-opacity:1; stroke-dasharray:0 0" transform="translate(4 4)  rotate(0 3 3)" d="M0 6L6 6L6 0L0 0L0 6Z " /></g></svg>