<svg t="1648644583566" class="icon" viewBox="0 0 1024 1024" version="1.1" xmlns="http://www.w3.org/2000/svg" p-id="1946" width="200" height="200"><path d="M798.592 682.666667l-45.781333-113.322667L707.029333 682.666667h91.562667z m34.474667 85.333333h-160.512l-21.973334 54.4a42.666667 42.666667 0 1 1-79.146666-32l139.093333-344.192a42.624 42.624 0 0 1 29.568-25.472 42.666667 42.666667 0 0 1 54.4 23.978667l139.605333 345.514666a42.666667 42.666667 0 0 1-79.104 32L833.066667 768zM128 170.666667h768v85.333333H128V170.666667z m0 213.333333h469.333333v85.333333H128V384z m0 170.666667h341.333333v85.333333H128v-85.333333z m0 170.666666h256v85.333334H128v-85.333334z" p-id="1947"></path></svg>