<svg t="1648519541989" class="icon" viewBox="0 0 1024 1024" version="1.1" xmlns="http://www.w3.org/2000/svg" p-id="2978" width="200" height="200"><path d="M681.376 339.808c-0.416-31.072 3.776-54.304 32.8-69.952 5.952-3.2 20-4.896 26.72-4.896 7.36-0.768 0.064-6.752 16.32-6.752s38.816 7.168 49.632 29.312c10.784 22.144 11.712 46.464 11.712 52.288s5.952 2.912 5.952 11.648-2.56 26.048-11.712 37.792c-9.152 11.744-12.128 14.656-18.112 23.392s-8.96 18.272-8.96 26.208c0 29.152 49.856 31.296 78.752 49.696 11.84 7.552 20 17.408 24.512 29.568a19.04 19.04 0 0 1-17.856 25.632h-242.368a19.04 19.04 0 0 1-19.04-19.04 18.88 18.88 0 0 1 1.248-6.752l-0.032 0.128c4.512-12.16 12.64-22.016 24.416-29.536 28.736-18.4 78.816-20.544 78.816-49.696 0-7.744-2.976-17.472-8.96-26.208s-8.96-11.648-17.888-23.392-11.936-29.056-11.936-37.792 5.952-5.824 5.952-11.616zM163.008 670.624h380.704a31.68 31.68 0 1 1 0 63.424H163.008a31.68 31.68 0 1 1 0-63.424z m0-126.912h190.368a31.68 31.68 0 1 1 0 63.424H163.008a31.68 31.68 0 1 1 0-63.424zM99.552 194.72a31.68 31.68 0 0 0-31.712 31.712v571.072a31.68 31.68 0 0 0 31.712 31.712h824.896a31.68 31.68 0 0 0 31.712-31.712V226.432a31.68 31.68 0 0 0-31.712-31.712H99.552z m0-63.424h824.896a95.168 95.168 0 0 1 95.168 95.168v571.072a95.168 95.168 0 0 1-95.168 95.168H99.552a95.168 95.168 0 0 1-95.168-95.168V226.464a95.168 95.168 0 0 1 95.168-95.168z" p-id="2979"></path></svg>