<svg xml:space="preserve" style="enable-background:new 0 0 1024 1024;" viewBox="0 0 1024 1024" y="0px" x="0px" xmlns:xlink="http://www.w3.org/1999/xlink" xmlns="http://www.w3.org/2000/svg" id="图层_1" version="1.1">
<style type="text/css">
	.st0{fill:#FED685;}
	.st1{fill:#FF9F8E;}
	.st2{fill:#152140;}
	.st3{fill:#F5575D;}
	.st4{opacity:0.4;}
	.st5{fill:#FFFFFF;stroke:#0F0F0F;stroke-width:6;stroke-miterlimit:10;}
	.st6{fill:#FFFFFF;}
	.st7{fill:#FF8777;}
	.st8{fill:#020202;}
	.st9{fill:#DD5543;}
	.st10{fill:url(#SVGID_1_);}
</style>
<g>
	<path d="M1024.5,512.5c0,159.12-72.64,301.43-186.53,395.31c-8.46,7.01-17.09,13.68-26.06,20.12
		c-11.04,7.96-22.42,15.53-34.08,22.53c-77.35,47.02-168.2,74.04-265.33,74.04c-8.58,0-17.1-0.17-25.5-0.62
		c-9.19-0.45-18.27-1.12-27.29-2.13c-64.01-6.45-124.43-24.83-179.19-52.68c-14.57-7.45-28.75-15.58-42.49-24.33
		c-9.19-5.83-18.1-12-26.85-18.38C83.45,833.32,0.5,682.66,0.5,512.5c0-282.76,229.24-512,512-512
		C795.26,0.5,1024.5,229.74,1024.5,512.5z" class="st0"></path>
</g>
<g>
	
		<ellipse ry="67.59" rx="41.44" cy="468.94" cx="295.57" class="st1" transform="matrix(0.9959 -0.0905 0.0905 0.9959 -41.2184 28.6673)"></ellipse>
</g>
<path d="M324.91,486.15c-1.93-11.5-6.9-23.1-16-30.73c-2.21-1.85-4.45-3.63-7.15-5.01c-2.61-1.38-6.04-2.06-8.96-0.88
	c-5.88,2.55-7.89,8.86-8.43,14.23c1.03-5.32,3.95-11.09,8.99-12.56c5.09-1.31,9.45,3.02,13.16,6.79
	c7.46,7.74,10.75,18.46,11.41,28.99c0.12,1.94,1.8,3.42,3.74,3.3c1.94-0.12,3.42-1.8,3.3-3.74
	C324.95,486.42,324.93,486.27,324.91,486.15z" class="st2"></path>
<g>
	
		<ellipse ry="37.62" rx="65.9" cy="475.21" cx="711.42" class="st1" transform="matrix(0.0905 -0.9959 0.9959 0.0905 173.7892 1140.7205)"></ellipse>
</g>
<path d="M691.18,491.76c1.93-11.5,6.9-23.1,16-30.73c2.21-1.85,4.45-3.63,7.15-5.01c2.61-1.38,6.04-2.06,8.96-0.88
	c5.88,2.55,7.89,8.86,8.43,14.23c-1.03-5.32-3.95-11.09-8.99-12.56c-5.09-1.31-9.45,3.02-13.16,6.79
	c-7.46,7.74-10.75,18.46-11.41,28.99c-0.12,1.94-1.8,3.42-3.74,3.3c-1.94-0.12-3.42-1.8-3.3-3.74
	C691.14,492.02,691.15,491.87,691.18,491.76z" class="st2"></path>
<g>
	<rect height="184.99" width="168.33" class="st1" y="689.08" x="419.2"></rect>
</g>
<g>
	<path d="M325.14,430.18c-6.18-23.79-16.18-58.09-31.93-98.53c-13.21-33.89-17.3-38.31-16.31-50.28
		c4.2-50.53,86.77-88.56,149.49-97.85c33.74-5,61.85-1.7,78.82,1.36c-0.38-5.79-2.1-19.18-12.23-30.58
		c-3.18-3.58-6.53-6.22-9.52-8.15c5.98-0.82,29.98-3.42,52.32,12.23c14.62,10.24,21.58,23.42,24.46,29.9
		c1.72-10.28,2.66-23.9,0-39.41c-0.89-5.19-2.08-9.95-3.4-14.27c4.73,2.82,12.7,8.47,19.03,18.35c9.94,15.51,9.31,31.25,8.83,36.69
		c5.56-6.34,17.05-17.72,35.33-25.14c16.53-6.71,31.18-7.15,39.41-6.79c-2.64,0.3-17.97,2.29-27.18,15.63
		c-4.54,6.57-5.75,13.22-6.11,16.99c8.05-1.51,19.66-2.69,33.3-0.68c21.52,3.17,36.92,12.62,44.85,18.35
		c-10.19,2.04-20.38,4.08-30.58,6.12c8.38,2.03,21.05,5.99,34.65,14.27c5.46,3.32,43.44,26.42,40.09,49.6
		c-1.21,8.35-7.04,11.65-13.59,19.03c-29.49,33.22-6.65,74-29.9,118.23c-5.23,9.96-15.02,24.3-34.65,38.05
		C555.26,445.58,440.2,437.88,325.14,430.18z" class="st2"></path>
</g>
<g>
	<path d="M587.53,689.08v51.89c-47.16,21.21-114.34,25.67-168.33,3.55v-55.44H587.53z" class="st3"></path>
</g>
<g>
	<path d="M486.52,233.41c-71.35,11.69-128.14,65.73-147.44,135.4c-18.26,65.9-28.19,146.32-9.84,231.65
		c14.32,66.58,36.17,91.11,47.56,101.93c62.15,58.95,175.84,53.42,235.11,14.95c83.05-53.91,112.18-206.85,50.35-381.19
		c-24.41-68.83-92.77-112.74-165.29-104.21c-0.64,0.08-1.28,0.15-1.93,0.24C492.16,232.54,489.32,232.96,486.52,233.41z" class="st1"></path>
</g>
<g class="st4">
	
		<ellipse ry="85.79" rx="63.98" cy="397.87" cx="573.44" class="st5" transform="matrix(0.9744 -0.2249 0.2249 0.9744 -74.7927 139.1676)"></ellipse>
</g>
<g class="st4">
	
		<ellipse ry="68.56" rx="90.86" cy="401.52" cx="419.97" class="st5" transform="matrix(0.4312 -0.9023 0.9023 0.4312 -123.3966 607.3016)"></ellipse>
</g>
<g>
	<circle r="18.61" cy="430.31" cx="390.42" class="st2"></circle>
</g>
<g>
	<circle r="5.07" cy="422.98" cx="398.98" class="st6"></circle>
</g>
<g>
	<g>
		<circle r="18.61" cy="430.31" cx="552.55" class="st2"></circle>
	</g>
	<g>
		<circle r="5.07" cy="422.98" cx="561.11" class="st6"></circle>
	</g>
</g>
<g>
	<path d="M687.21,368.51c-16.82-10.93-35.76-25.51-54.36-44.85c-7.08-7.36-13.39-14.66-19.03-21.74
		c0.68,8.82,2.35,19.53,6.12,31.26c1.86,5.78,3.96,11,6.11,15.63c-5.98-5.69-17.3-18.04-23.1-37.37c-8.38-27.9,0.44-51.39,3.4-58.44
		c-5.4,9.89-14.85,24.22-30.58,37.37c-24.31,20.33-49.96,26.44-62.52,28.54c6.88-8.15,14.77-16.64,23.78-25.14
		c21.79-20.55,43.73-35.16,62.52-45.53c-28.82,7.97-60.66,18.51-94.45,32.62c-25.69,10.72-49.03,22.04-69.99,33.3
		c3.7-6.74,9.68-15.75,19.03-24.46c13.98-13.02,28.67-18.98,37.37-21.74c-24.61,4.32-58.68,13.32-95.13,33.3
		c-22.11,12.11-39.9,25.42-53.68,37.37c-8.15-17.67-16.31-35.33-24.46-53c25.77-9.33,61.29-21.77,103.96-35.33
		c152.87-48.6,177.36-41.78,190.26-36.01C672.01,240.87,684.22,334.05,687.21,368.51z" class="st2"></path>
</g>
<g>
	<path d="M434.33,297.03c-0.97-2.11-12.39-0.69-21.58,5.29c-12.65,8.21-18.49,23.33-16.52,24.89
		c0.95,0.75,3.36-1.91,17.18-12.77C430.04,301.36,435.02,298.56,434.33,297.03z" class="st2"></path>
</g>
<g>
	<path d="M560.57,297.12c0.49-2.27,11.95-3.33,22.22,0.53c14.12,5.31,23.06,18.82,21.47,20.77
		c-0.76,0.94-3.69-1.15-19.52-8.79C565.68,300.42,560.21,298.75,560.57,297.12z" class="st2"></path>
</g>
<ellipse ry="12.49" rx="34.1" cy="483.15" cx="590.77" class="st7" transform="matrix(0.9771 -0.2126 0.2126 0.9771 -89.2289 136.6758)"></ellipse>
<ellipse ry="34.1" rx="12.49" cy="488.69" cx="390.42" class="st7" transform="matrix(0.2126 -0.9771 0.9771 0.2126 -170.1152 766.2535)"></ellipse>
<g>
	<path d="M777.83,950.46c-77.35,47.02-168.2,74.04-265.33,74.04c-8.58,0-17.1-0.17-25.5-0.62
		c-9.19-0.45-18.27-1.12-27.29-2.13c-64.01-6.45-124.43-24.83-179.19-52.68c-14.57-7.45-28.75-15.58-42.49-24.33
		c0.34-0.5,0.73-0.95,1.06-1.46c2.97-3.98,5.94-7.96,9.14-11.94c20.35-26.23,41.42-49.55,62.44-70.45
		c29.09-29.2,57.67-53.36,83.29-72.86c7.35-5.32,18.33-5.88,25.89-0.95c13.06,8.52,34.53,19.34,63.62,22.36
		c42.32,4.6,75.5-10.03,92.2-19.73c7.29-4.15,16.93-4.15,23.76,0.56c29.76,19.73,60.87,43.1,91.75,70.62
		c2.52,2.07,4.82,4.2,7.34,6.45c28.36,25.67,52.85,51.45,74.38,77.12C774.58,946.48,776.21,948.44,777.83,950.46z" class="st6"></path>
	<path d="M691.21,860.91H310.69c29.06-29.23,57.66-53.34,83.29-72.9c7.33-5.32,18.3-5.89,25.85-0.95
		c13.05,8.54,34.56,19.36,63.61,22.4c42.32,4.56,75.5-10.06,92.2-19.74c7.32-4.17,16.94-4.17,23.8,0.57
		C629.2,810.03,660.32,833.38,691.21,860.91z" class="st8"></path>
	<path d="M777.83,950.46c-77.35,47.02-168.2,74.04-265.33,74.04c-8.58,0-17.1-0.17-25.5-0.62
		c-9.19-0.45-18.27-1.12-27.29-2.13c-64.01-6.45-124.43-24.83-179.19-52.68c-14.57-7.45-28.75-15.58-42.49-24.33
		c0.34-0.5,0.73-0.95,1.06-1.46l99.77,31.89H677l95.9-30.71C774.58,946.48,776.21,948.44,777.83,950.46z" class="st8"></path>
</g>
<path d="M559.57,645.42v0.07c-2.7,15.04-28.04,23.09-56.55,18.01c-8.12-1.45-15.57-3.83-22.11-6.8
	c-16.36-7.52-26.53-19-24.61-29.76c1.72-9.5,12.28-16.17,26.92-18.54c8.78-1.52,18.94-1.45,29.63,0.46
	c11.22,2.05,21.31,5.81,29.16,10.56C554.16,626.68,561.15,636.25,559.57,645.42z" class="st9"></path>
<path d="M542.02,619.42c-5.41,5.41-15.7,9.04-27.51,9.04c-17.49,0-31.61-7.92-31.61-17.62c0-0.86,0.13-1.65,0.33-2.44
	c8.78-1.52,18.94-1.45,29.63,0.46C524.07,610.91,534.16,614.67,542.02,619.42z" class="st6"></path>
<path d="M559.57,645.42v0.07c-2.7,15.04-28.04,23.09-56.55,18.01c-8.12-1.45-15.57-3.83-22.11-6.8
	c4.95-7.79,26.13-13.72,51.47-13.72C542.35,642.98,551.65,643.9,559.57,645.42z" class="st6"></path>
<linearGradient gradientTransform="matrix(1 0 0 1 0 -913.9289)" y2="1404.9205" x2="452.1497" y1="1455.2693" x1="539.3563" gradientUnits="userSpaceOnUse" id="SVGID_1_">
	<stop style="stop-color:#DD5543;stop-opacity:0" offset="0.2403"></stop>
	<stop style="stop-color:#DD5543;stop-opacity:0.6" offset="1"></stop>
</linearGradient>
<path d="M501.29,561.58l-10.7-2.07c-26.84-5.18-44.39-31.14-39.21-57.97l1.74-9.02c3.05-15.77,18.3-26.09,34.07-23.04
	l11.2,2.16c29.19,5.64,48.28,33.88,42.63,63.07v0C537.47,553.1,519.68,565.13,501.29,561.58z" class="st10"></path>
</svg>
